<svg xmlns="http://www.w3.org/2000/svg" xmlns:xlink="http://www.w3.org/1999/xlink" width="532" zoomAndPan="magnify" viewBox="0 0 398.88 357.749992" height="477" preserveAspectRatio="xMidYMid meet" version="1.0"><defs><g/><clipPath id="e50674a8d9"><path d="M 34.171875 18.53125 L 364.601562 18.53125 L 364.601562 347.101562 L 34.171875 347.101562 Z M 34.171875 18.53125 " clip-rule="nonzero"/></clipPath><clipPath id="73459efa18"><path d="M 0.171875 0.53125 L 330.601562 0.53125 L 330.601562 329.101562 L 0.171875 329.101562 Z M 0.171875 0.53125 " clip-rule="nonzero"/></clipPath><clipPath id="7befb1b4aa"><rect x="0" width="331" y="0" height="330"/></clipPath><clipPath id="b78f15d645"><path d="M 74.621094 170.507812 L 324.441406 170.507812 L 324.441406 356.964844 L 74.621094 356.964844 Z M 74.621094 170.507812 " clip-rule="nonzero"/></clipPath><clipPath id="f52b5956ee"><path d="M 157.84375 177.714844 C 170.59375 173.363281 185.179688 170.507812 199.453125 170.507812 C 213.730469 170.507812 227.464844 172.953125 240.121094 177.304688 C 240.390625 177.441406 240.660156 177.441406 240.929688 177.578125 C 288.46875 194.980469 323.480469 240.929688 324.152344 291.949219 L 324.152344 356.964844 L 74.621094 356.964844 L 74.621094 292 C 75.296875 240.660156 109.769531 194.707031 157.84375 177.714844 Z M 157.84375 177.714844 " clip-rule="nonzero"/></clipPath><clipPath id="03dcd25562"><path d="M 0.621094 0.507812 L 250.332031 0.507812 L 250.332031 186.964844 L 0.621094 186.964844 Z M 0.621094 0.507812 " clip-rule="nonzero"/></clipPath><clipPath id="b263dadb82"><path d="M 83.84375 7.714844 C 96.59375 3.363281 111.179688 0.507812 125.453125 0.507812 C 139.730469 0.507812 153.464844 2.953125 166.121094 7.304688 C 166.390625 7.441406 166.660156 7.441406 166.929688 7.578125 C 214.46875 24.980469 249.480469 70.929688 250.152344 121.949219 L 250.152344 186.964844 L 0.621094 186.964844 L 0.621094 122 C 1.296875 70.660156 35.769531 24.707031 83.84375 7.714844 Z M 83.84375 7.714844 " clip-rule="nonzero"/></clipPath><clipPath id="7622bdd18f"><rect x="0" width="251" y="0" height="187"/></clipPath><clipPath id="48e73b9f00"><path d="M 74.628906 170.507812 L 324.144531 170.507812 L 324.144531 357 L 74.628906 357 Z M 74.628906 170.507812 " clip-rule="nonzero"/></clipPath><clipPath id="d61ed7cbad"><path d="M 157.84375 177.710938 C 170.597656 173.363281 185.179688 170.507812 199.453125 170.507812 C 213.726562 170.507812 227.460938 172.953125 240.117188 177.304688 C 240.390625 177.441406 240.65625 177.441406 240.925781 177.578125 C 288.460938 194.976562 323.46875 240.925781 324.144531 291.945312 L 324.144531 356.953125 L 74.628906 356.953125 L 74.628906 291.992188 C 75.300781 240.65625 109.773438 194.707031 157.84375 177.710938 Z M 157.84375 177.710938 " clip-rule="nonzero"/></clipPath><clipPath id="45ca0c766a"><path d="M 91.613281 186.039062 L 307.414062 186.039062 L 307.414062 347.101562 L 91.613281 347.101562 Z M 91.613281 186.039062 " clip-rule="nonzero"/></clipPath><clipPath id="af7666f69a"><path d="M 163.5 192.261719 C 174.515625 188.503906 187.113281 186.039062 199.445312 186.039062 C 211.777344 186.039062 223.640625 188.152344 234.574219 191.910156 C 234.808594 192.027344 235.039062 192.027344 235.273438 192.144531 C 276.335938 207.175781 306.578125 246.871094 307.160156 290.941406 L 307.160156 347.101562 L 91.613281 347.101562 L 91.613281 290.984375 C 92.195312 246.636719 121.972656 206.941406 163.5 192.261719 Z M 163.5 192.261719 " clip-rule="nonzero"/></clipPath><clipPath id="f2cf11fcdf"><path d="M 0.613281 0.0390625 L 216.304688 0.0390625 L 216.304688 161.101562 L 0.613281 161.101562 Z M 0.613281 0.0390625 " clip-rule="nonzero"/></clipPath><clipPath id="bc7c2d72bd"><path d="M 72.5 6.261719 C 83.515625 2.503906 96.113281 0.0390625 108.445312 0.0390625 C 120.777344 0.0390625 132.640625 2.152344 143.574219 5.910156 C 143.808594 6.027344 144.039062 6.027344 144.273438 6.144531 C 185.335938 21.175781 215.578125 60.871094 216.160156 104.941406 L 216.160156 161.101562 L 0.613281 161.101562 L 0.613281 104.984375 C 1.195312 60.636719 30.972656 20.941406 72.5 6.261719 Z M 72.5 6.261719 " clip-rule="nonzero"/></clipPath><clipPath id="eba97858fb"><rect x="0" width="217" y="0" height="162"/></clipPath><clipPath id="5f247061ff"><path d="M 91.617188 186.039062 L 307.15625 186.039062 L 307.15625 347.175781 L 91.617188 347.175781 Z M 91.617188 186.039062 " clip-rule="nonzero"/></clipPath><clipPath id="a770a19f36"><path d="M 163.5 192.261719 C 174.515625 188.503906 187.113281 186.039062 199.441406 186.039062 C 211.773438 186.039062 223.636719 188.152344 234.570312 191.910156 C 234.804688 192.027344 235.035156 192.027344 235.269531 192.144531 C 276.328125 207.175781 306.574219 246.867188 307.15625 290.9375 L 307.15625 347.09375 L 91.617188 347.09375 L 91.617188 290.980469 C 92.199219 246.632812 121.976562 206.941406 163.5 192.261719 Z M 163.5 192.261719 " clip-rule="nonzero"/></clipPath><clipPath id="594ce07af3"><path d="M 363 40 L 373.746094 40 L 373.746094 326 L 363 326 Z M 363 40 " clip-rule="nonzero"/></clipPath><clipPath id="951af7ad62"><path d="M 25.242188 40 L 36 40 L 36 326 L 25.242188 326 Z M 25.242188 40 " clip-rule="nonzero"/></clipPath><clipPath id="e65be9bc5a"><path d="M 57 8.671875 L 342 8.671875 L 342 20 L 57 20 Z M 57 8.671875 " clip-rule="nonzero"/></clipPath><clipPath id="b90b23d83b"><path d="M 341 8.671875 L 373.746094 8.671875 L 373.746094 41 L 341 41 Z M 341 8.671875 " clip-rule="nonzero"/></clipPath><clipPath id="86cbfadae8"><path d="M 25.242188 8.671875 L 58 8.671875 L 58 41 L 25.242188 41 Z M 25.242188 8.671875 " clip-rule="nonzero"/></clipPath><clipPath id="03db90be02"><path d="M 341 325 L 373.746094 325 L 373.746094 357 L 341 357 Z M 341 325 " clip-rule="nonzero"/></clipPath><clipPath id="d9447448d8"><path d="M 25.242188 325 L 58 325 L 58 357 L 25.242188 357 Z M 25.242188 325 " clip-rule="nonzero"/></clipPath><clipPath id="3639901c35"><path d="M 37.054688 310.546875 L 74.621094 310.546875 L 74.621094 347.101562 L 37.054688 347.101562 Z M 37.054688 310.546875 " clip-rule="nonzero"/></clipPath><clipPath id="a1e5c9b705"><path d="M 0.0546875 0.546875 L 37.621094 0.546875 L 37.621094 37.101562 L 0.0546875 37.101562 Z M 0.0546875 0.546875 " clip-rule="nonzero"/></clipPath><clipPath id="99d17be479"><rect x="0" width="38" y="0" height="38"/></clipPath><clipPath id="502233c29e"><path d="M 37.054688 263.734375 L 74.621094 263.734375 L 74.621094 300.292969 L 37.054688 300.292969 Z M 37.054688 263.734375 " clip-rule="nonzero"/></clipPath><clipPath id="f2f93d5d23"><path d="M 0.0546875 0.734375 L 37.621094 0.734375 L 37.621094 37.292969 L 0.0546875 37.292969 Z M 0.0546875 0.734375 " clip-rule="nonzero"/></clipPath><clipPath id="11bfe366c2"><rect x="0" width="38" y="0" height="38"/></clipPath><clipPath id="8acf15d58a"><path d="M 37.054688 216.6875 L 74.621094 216.6875 L 74.621094 253.242188 L 37.054688 253.242188 Z M 37.054688 216.6875 " clip-rule="nonzero"/></clipPath><clipPath id="21bf09e678"><path d="M 0.0546875 0.6875 L 37.621094 0.6875 L 37.621094 37.242188 L 0.0546875 37.242188 Z M 0.0546875 0.6875 " clip-rule="nonzero"/></clipPath><clipPath id="ee1d21a6f7"><rect x="0" width="38" y="0" height="38"/></clipPath><clipPath id="b9c0c44c56"><path d="M 37.054688 169.636719 L 74.621094 169.636719 L 74.621094 206.195312 L 37.054688 206.195312 Z M 37.054688 169.636719 " clip-rule="nonzero"/></clipPath><clipPath id="df06fd74d8"><path d="M 0.0546875 0.636719 L 37.621094 0.636719 L 37.621094 37.195312 L 0.0546875 37.195312 Z M 0.0546875 0.636719 " clip-rule="nonzero"/></clipPath><clipPath id="9b153447de"><rect x="0" width="38" y="0" height="38"/></clipPath><clipPath id="75fa5d1ce1"><path d="M 37.054688 122.828125 L 74.621094 122.828125 L 74.621094 159.382812 L 37.054688 159.382812 Z M 37.054688 122.828125 " clip-rule="nonzero"/></clipPath><clipPath id="d22437df5f"><path d="M 0.0546875 0.828125 L 37.621094 0.828125 L 37.621094 37.382812 L 0.0546875 37.382812 Z M 0.0546875 0.828125 " clip-rule="nonzero"/></clipPath><clipPath id="1cecde219f"><rect x="0" width="38" y="0" height="38"/></clipPath><clipPath id="275ab39fc6"><path d="M 37.054688 75.777344 L 74.621094 75.777344 L 74.621094 112.335938 L 37.054688 112.335938 Z M 37.054688 75.777344 " clip-rule="nonzero"/></clipPath><clipPath id="00b57776b2"><path d="M 0.0546875 0.777344 L 37.621094 0.777344 L 37.621094 37.335938 L 0.0546875 37.335938 Z M 0.0546875 0.777344 " clip-rule="nonzero"/></clipPath><clipPath id="f590ad4109"><rect x="0" width="38" y="0" height="38"/></clipPath><clipPath id="9b8d70fcdc"><path d="M 324.152344 310.546875 L 361.71875 310.546875 L 361.71875 347.101562 L 324.152344 347.101562 Z M 324.152344 310.546875 " clip-rule="nonzero"/></clipPath><clipPath id="e4600e5eaa"><path d="M 0.152344 0.546875 L 37.71875 0.546875 L 37.71875 37.101562 L 0.152344 37.101562 Z M 0.152344 0.546875 " clip-rule="nonzero"/></clipPath><clipPath id="201d72a254"><rect x="0" width="38" y="0" height="38"/></clipPath><clipPath id="24eb261e74"><path d="M 324.152344 263.734375 L 361.71875 263.734375 L 361.71875 300.292969 L 324.152344 300.292969 Z M 324.152344 263.734375 " clip-rule="nonzero"/></clipPath><clipPath id="88d7050f8c"><path d="M 0.152344 0.734375 L 37.71875 0.734375 L 37.71875 37.292969 L 0.152344 37.292969 Z M 0.152344 0.734375 " clip-rule="nonzero"/></clipPath><clipPath id="9a8bef1caa"><rect x="0" width="38" y="0" height="38"/></clipPath><clipPath id="d70a3d601c"><path d="M 324.152344 216.6875 L 361.71875 216.6875 L 361.71875 253.242188 L 324.152344 253.242188 Z M 324.152344 216.6875 " clip-rule="nonzero"/></clipPath><clipPath id="17625a17d0"><path d="M 0.152344 0.6875 L 37.71875 0.6875 L 37.71875 37.242188 L 0.152344 37.242188 Z M 0.152344 0.6875 " clip-rule="nonzero"/></clipPath><clipPath id="8bd825fd52"><rect x="0" width="38" y="0" height="38"/></clipPath><clipPath id="71075b7491"><path d="M 324.152344 169.636719 L 361.71875 169.636719 L 361.71875 206.195312 L 324.152344 206.195312 Z M 324.152344 169.636719 " clip-rule="nonzero"/></clipPath><clipPath id="856ebb1f7f"><path d="M 0.152344 0.636719 L 37.71875 0.636719 L 37.71875 37.195312 L 0.152344 37.195312 Z M 0.152344 0.636719 " clip-rule="nonzero"/></clipPath><clipPath id="4f68284b99"><rect x="0" width="38" y="0" height="38"/></clipPath><clipPath id="4b8943638b"><path d="M 324.152344 122.828125 L 361.71875 122.828125 L 361.71875 159.382812 L 324.152344 159.382812 Z M 324.152344 122.828125 " clip-rule="nonzero"/></clipPath><clipPath id="a1ed1d4141"><path d="M 0.152344 0.828125 L 37.71875 0.828125 L 37.71875 37.382812 L 0.152344 37.382812 Z M 0.152344 0.828125 " clip-rule="nonzero"/></clipPath><clipPath id="2d110f0b63"><rect x="0" width="38" y="0" height="38"/></clipPath><clipPath id="281f4446a6"><path d="M 324.152344 75.777344 L 361.71875 75.777344 L 361.71875 112.335938 L 324.152344 112.335938 Z M 324.152344 75.777344 " clip-rule="nonzero"/></clipPath><clipPath id="0b586e9351"><path d="M 0.152344 0.777344 L 37.71875 0.777344 L 37.71875 37.335938 L 0.152344 37.335938 Z M 0.152344 0.777344 " clip-rule="nonzero"/></clipPath><clipPath id="6da2e0a750"><rect x="0" width="38" y="0" height="38"/></clipPath><clipPath id="7aa767f9ac"><path d="M 158.164062 328.824219 L 240.609375 328.824219 L 240.609375 345.730469 L 158.164062 345.730469 Z M 158.164062 328.824219 " clip-rule="nonzero"/></clipPath><clipPath id="2b5e949705"><path d="M 0.164062 0.824219 L 82.609375 0.824219 L 82.609375 17.730469 L 0.164062 17.730469 Z M 0.164062 0.824219 " clip-rule="nonzero"/></clipPath><clipPath id="a6ecdbebe0"><rect x="0" width="83" y="0" height="18"/></clipPath><clipPath id="f3690f662c"><path d="M 165.945312 300.292969 L 174.101562 300.292969 L 174.101562 328.824219 L 165.945312 328.824219 Z M 165.945312 300.292969 " clip-rule="nonzero"/></clipPath><clipPath id="44816b729e"><path d="M 0.945312 0.292969 L 9.101562 0.292969 L 9.101562 28.824219 L 0.945312 28.824219 Z M 0.945312 0.292969 " clip-rule="nonzero"/></clipPath><clipPath id="29c66a9b51"><rect x="0" width="10" y="0" height="29"/></clipPath><clipPath id="c29836bdcd"><path d="M 223.207031 300.292969 L 231.363281 300.292969 L 231.363281 328.824219 L 223.207031 328.824219 Z M 223.207031 300.292969 " clip-rule="nonzero"/></clipPath><clipPath id="5c27d9c119"><path d="M 0.207031 0.292969 L 8.363281 0.292969 L 8.363281 28.824219 L 0.207031 28.824219 Z M 0.207031 0.292969 " clip-rule="nonzero"/></clipPath><clipPath id="64ae29cc02"><rect x="0" width="9" y="0" height="29"/></clipPath><clipPath id="394ae4abba"><path d="M 153.71875 282.457031 L 174.132812 282.457031 L 174.132812 300.292969 L 153.71875 300.292969 Z M 153.71875 282.457031 " clip-rule="nonzero"/></clipPath><clipPath id="5fc51659c8"><path d="M 163.910156 282.457031 L 174.101562 300.292969 L 153.71875 300.292969 Z M 163.910156 282.457031 " clip-rule="nonzero"/></clipPath><clipPath id="7d94833051"><path d="M 0.71875 0.457031 L 21.132812 0.457031 L 21.132812 18.292969 L 0.71875 18.292969 Z M 0.71875 0.457031 " clip-rule="nonzero"/></clipPath><clipPath id="0fadf0ca77"><path d="M 10.910156 0.457031 L 21.101562 18.292969 L 0.71875 18.292969 Z M 10.910156 0.457031 " clip-rule="nonzero"/></clipPath><clipPath id="dc6d890f10"><rect x="0" width="22" y="0" height="19"/></clipPath><clipPath id="302a979b2c"><path d="M 163.910156 282.457031 L 231.363281 282.457031 L 231.363281 300.292969 L 163.910156 300.292969 Z M 163.910156 282.457031 " clip-rule="nonzero"/></clipPath><clipPath id="8e0517c32c"><path d="M 0.910156 0.457031 L 68.363281 0.457031 L 68.363281 18.292969 L 0.910156 18.292969 Z M 0.910156 0.457031 " clip-rule="nonzero"/></clipPath><clipPath id="57da938f41"><rect x="0" width="69" y="0" height="19"/></clipPath></defs><g clip-path="url(#e50674a8d9)"><g transform="matrix(1, 0, 0, 1, 34, 18)"><g clip-path="url(#7befb1b4aa)"><g clip-path="url(#73459efa18)"><path fill="#576566" d="M 0.171875 0.53125 L 330.023438 0.53125 L 330.023438 329.101562 L 0.171875 329.101562 Z M 0.171875 0.53125 " fill-opacity="1" fill-rule="nonzero"/></g></g></g></g><g clip-path="url(#b78f15d645)"><g clip-path="url(#f52b5956ee)"><g transform="matrix(1, 0, 0, 1, 74, 170)"><g clip-path="url(#7622bdd18f)"><g clip-path="url(#03dcd25562)"><g clip-path="url(#b263dadb82)"><path fill="#b92727" d="M 0.621094 0.507812 L 250.441406 0.507812 L 250.441406 186.964844 L 0.621094 186.964844 Z M 0.621094 0.507812 " fill-opacity="1" fill-rule="nonzero"/></g></g></g></g></g></g><g clip-path="url(#48e73b9f00)"><g clip-path="url(#d61ed7cbad)"><path stroke-linecap="butt" transform="matrix(0.749476, 0, 0, 0.749476, 74.621857, 170.507535)" fill="none" stroke-linejoin="miter" d="M 111.040066 9.611248 C 128.057158 3.810322 147.513453 0.00036983 166.558002 0.00036983 C 185.602552 0.00036983 203.927849 3.263065 220.814641 9.069203 C 221.179479 9.251622 221.533893 9.251622 221.893519 9.434041 C 285.318019 32.648169 332.027721 93.956607 332.929392 162.030186 L 332.929392 248.76784 L 0.00940546 248.76784 L 0.00940546 162.09273 C 0.905865 93.596981 46.901526 32.288542 111.040066 9.611248 Z M 111.040066 9.611248 " stroke="#000000" stroke-width="4" stroke-opacity="1" stroke-miterlimit="4"/></g></g><g clip-path="url(#45ca0c766a)"><g clip-path="url(#af7666f69a)"><g transform="matrix(1, 0, 0, 1, 91, 186)"><g clip-path="url(#eba97858fb)"><g clip-path="url(#f2cf11fcdf)"><g clip-path="url(#bc7c2d72bd)"><path fill="#ffffff" d="M 0.613281 0.0390625 L 216.414062 0.0390625 L 216.414062 161.101562 L 0.613281 161.101562 Z M 0.613281 0.0390625 " fill-opacity="1" fill-rule="nonzero"/></g></g></g></g></g></g><g clip-path="url(#5f247061ff)"><g clip-path="url(#a770a19f36)"><path stroke-linecap="butt" transform="matrix(0.749476, 0, 0, 0.749476, 91.61296, 186.038145)" fill="none" stroke-linejoin="miter" d="M 95.916368 8.303897 C 110.614131 3.289979 127.422744 0.00122375 143.871731 0.00122375 C 160.32593 0.00122375 176.154692 2.820901 190.743004 7.834819 C 191.055722 7.991178 191.363229 7.991178 191.675947 8.147538 C 246.458995 28.20321 286.815302 81.162067 287.591886 139.963546 L 287.591886 214.89087 L 0.00564063 214.89087 L 0.00564063 140.020878 C 0.782225 80.849349 40.513095 27.890491 95.916368 8.303897 Z M 95.916368 8.303897 " stroke="#000000" stroke-width="8" stroke-opacity="1" stroke-miterlimit="4"/></g></g><g clip-path="url(#594ce07af3)"><path fill="#000000" d="M 363.117188 40.585938 L 373.523438 40.585938 L 373.523438 325.039062 L 363.117188 325.039062 Z M 363.117188 40.585938 " fill-opacity="1" fill-rule="nonzero"/></g><g clip-path="url(#951af7ad62)"><path fill="#000000" d="M 25.242188 40.585938 L 35.648438 40.585938 L 35.648438 325.039062 L 25.242188 325.039062 Z M 25.242188 40.585938 " fill-opacity="1" fill-rule="nonzero"/></g><g clip-path="url(#e65be9bc5a)"><path fill="#000000" d="M 57.15625 8.671875 L 341.609375 8.671875 L 341.609375 19.078125 L 57.15625 19.078125 Z M 57.15625 8.671875 " fill-opacity="1" fill-rule="nonzero"/></g><path fill="#000000" d="M 57.15625 346.546875 L 341.609375 346.546875 L 341.609375 356.953125 L 57.15625 356.953125 Z M 57.15625 346.546875 " fill-opacity="1" fill-rule="nonzero"/><g clip-path="url(#b90b23d83b)"><path fill="#000000" d="M 363.117188 19.078125 L 363.117188 40.585938 L 373.523438 40.585938 L 373.523438 8.671875 L 341.609375 8.671875 L 341.609375 19.078125 Z M 363.117188 19.078125 " fill-opacity="1" fill-rule="nonzero"/></g><g clip-path="url(#86cbfadae8)"><path fill="#000000" d="M 35.648438 19.078125 L 57.15625 19.078125 L 57.15625 8.671875 L 25.242188 8.671875 L 25.242188 40.585938 L 35.648438 40.585938 Z M 35.648438 19.078125 " fill-opacity="1" fill-rule="nonzero"/></g><g clip-path="url(#03db90be02)"><path fill="#000000" d="M 363.117188 346.546875 L 341.609375 346.546875 L 341.609375 356.953125 L 373.523438 356.953125 L 373.523438 325.039062 L 363.117188 325.039062 Z M 363.117188 346.546875 " fill-opacity="1" fill-rule="nonzero"/></g><g clip-path="url(#d9447448d8)"><path fill="#000000" d="M 35.648438 346.546875 L 35.648438 325.039062 L 25.242188 325.039062 L 25.242188 356.953125 L 57.15625 356.953125 L 57.15625 346.546875 Z M 35.648438 346.546875 " fill-opacity="1" fill-rule="nonzero"/></g><g fill="#5d0000" fill-opacity="1"><g transform="translate(75.196978, 61.476404)"><g><path d="M 25.0625 -10.421875 C 26.304688 -10.421875 27.511719 -10.609375 28.679688 -10.984375 C 29.882812 -11.371094 30.734375 -11.722656 31.238281 -12.039062 L 32.242188 -10.445312 L 31.179688 -12 L 33.914062 -13.871094 L 39.601562 -2.5 L 38.34375 -1.558594 C 38.199219 -1.449219 38.003906 -1.304688 37.757812 -1.128906 C 37.453125 -0.914062 36.839844 -0.558594 35.910156 -0.0664062 C 34.972656 0.429688 33.96875 0.863281 32.90625 1.226562 C 31.839844 1.597656 30.46875 1.921875 28.792969 2.207031 C 27.113281 2.492188 25.382812 2.636719 23.605469 2.636719 C 19.433594 2.636719 15.480469 1.613281 11.75 -0.433594 C 8.019531 -2.480469 5.011719 -5.296875 2.730469 -8.882812 C 0.425781 -12.503906 -0.726562 -16.425781 -0.726562 -20.640625 C -0.726562 -23.832031 -0.0507812 -26.890625 1.304688 -29.820312 C 2.648438 -32.722656 4.4375 -35.214844 6.679688 -37.289062 C 8.902344 -39.351562 11.492188 -40.996094 14.445312 -42.21875 C 17.421875 -43.453125 20.476562 -44.070312 23.605469 -44.070312 C 26.457031 -44.070312 29.097656 -43.730469 31.523438 -43.046875 C 33.980469 -42.355469 35.761719 -41.632812 36.867188 -40.882812 L 39.636719 -39.003906 L 33.804688 -27.335938 L 31.972656 -28.90625 C 31.816406 -29.039062 31.546875 -29.222656 31.164062 -29.453125 C 30.816406 -29.664062 30.007812 -29.980469 28.734375 -30.40625 C 27.519531 -30.808594 26.296875 -31.011719 25.0625 -31.011719 C 23.03125 -31.011719 21.226562 -30.691406 19.644531 -30.046875 C 18.113281 -29.421875 16.917969 -28.621094 16.058594 -27.636719 C 15.144531 -26.59375 14.453125 -25.480469 13.980469 -24.289062 C 13.515625 -23.125 13.285156 -21.941406 13.285156 -20.742188 C 13.285156 -18.09375 14.292969 -15.707031 16.308594 -13.574219 C 18.296875 -11.472656 21.214844 -10.421875 25.0625 -10.421875 Z M 25.0625 -6.65625 C 20.132812 -6.65625 16.304688 -8.097656 13.574219 -10.984375 C 10.871094 -13.84375 9.515625 -17.09375 9.515625 -20.742188 C 9.515625 -22.421875 9.835938 -24.070312 10.480469 -25.679688 C 11.109375 -27.269531 12.027344 -28.75 13.222656 -30.117188 C 14.472656 -31.546875 16.140625 -32.6875 18.222656 -33.535156 C 20.257812 -34.363281 22.539062 -34.777344 25.0625 -34.777344 C 26.703125 -34.777344 28.324219 -34.511719 29.925781 -33.980469 C 31.464844 -33.464844 32.53125 -33.03125 33.121094 -32.671875 C 33.675781 -32.335938 34.109375 -32.03125 34.421875 -31.765625 L 33.195312 -30.335938 L 31.511719 -31.175781 L 35.53125 -39.210938 L 37.214844 -38.371094 L 36.15625 -36.8125 L 34.75 -37.765625 C 33.980469 -38.289062 32.566406 -38.839844 30.503906 -39.417969 C 28.410156 -40.007812 26.109375 -40.304688 23.605469 -40.304688 C 20.976562 -40.304688 18.402344 -39.78125 15.886719 -38.738281 C 13.351562 -37.6875 11.132812 -36.285156 9.242188 -34.527344 C 7.363281 -32.789062 5.855469 -30.691406 4.722656 -28.238281 C 3.601562 -25.808594 3.039062 -23.277344 3.039062 -20.640625 C 3.039062 -17.15625 3.996094 -13.910156 5.90625 -10.90625 C 7.84375 -7.863281 10.394531 -5.472656 13.5625 -3.734375 C 16.726562 -2 20.074219 -1.128906 23.605469 -1.128906 C 25.171875 -1.128906 26.691406 -1.253906 28.160156 -1.503906 C 29.632812 -1.753906 30.804688 -2.03125 31.679688 -2.332031 C 32.558594 -2.636719 33.382812 -2.992188 34.148438 -3.398438 C 34.929688 -3.808594 35.402344 -4.074219 35.566406 -4.195312 C 35.789062 -4.351562 35.960938 -4.480469 36.085938 -4.570312 L 37.214844 -3.0625 L 35.53125 -2.222656 L 31.511719 -10.257812 L 33.195312 -11.097656 L 34.261719 -9.542969 L 33.277344 -8.871094 L 33.25 -8.855469 C 32.476562 -8.367188 31.339844 -7.882812 29.832031 -7.398438 C 28.285156 -6.902344 26.695312 -6.65625 25.0625 -6.65625 Z M 25.0625 -6.65625 "/></g></g></g><g fill="#5d0000" fill-opacity="1"><g transform="translate(113.008749, 61.476404)"><g><path d="M 3.382812 -1.917969 C 0.640625 -4.90625 -0.726562 -8.550781 -0.726562 -12.855469 C -0.726562 -17.160156 0.640625 -20.8125 3.378906 -23.820312 C 6.164062 -26.875 9.691406 -28.402344 13.960938 -28.402344 C 17.886719 -28.402344 21.136719 -27.152344 23.710938 -24.65625 L 22.398438 -23.304688 L 20.515625 -23.304688 L 20.515625 -27.648438 L 33.171875 -27.648438 L 33.171875 1.882812 L 20.617188 1.882812 L 20.617188 -2.914062 L 22.5 -2.914062 L 22.5 -1.03125 L 22.398438 -1.03125 L 22.398438 -2.914062 L 23.796875 -1.648438 C 21.210938 1.207031 17.933594 2.636719 13.960938 2.636719 C 9.691406 2.636719 6.167969 1.117188 3.382812 -1.917969 Z M 6.160156 -4.460938 C 8.195312 -2.242188 10.796875 -1.128906 13.960938 -1.128906 C 16.820312 -1.128906 19.167969 -2.144531 21.003906 -4.175781 L 21.5625 -4.796875 L 24.382812 -4.796875 L 24.382812 0 L 22.5 0 L 22.5 -1.882812 L 31.289062 -1.882812 L 31.289062 0 L 29.40625 0 L 29.40625 -25.765625 L 31.289062 -25.765625 L 31.289062 -23.878906 L 22.398438 -23.878906 L 22.398438 -25.765625 L 24.28125 -25.765625 L 24.28125 -18.851562 L 21.089844 -21.949219 C 19.242188 -23.738281 16.867188 -24.632812 13.960938 -24.632812 C 10.800781 -24.632812 8.199219 -23.515625 6.164062 -21.28125 C 4.078125 -18.996094 3.039062 -16.1875 3.039062 -12.855469 C 3.039062 -9.527344 4.078125 -6.730469 6.160156 -4.460938 Z M 13.652344 -15.886719 C 12.871094 -15.117188 12.480469 -14.105469 12.480469 -12.855469 C 12.480469 -11.597656 12.851562 -10.589844 13.597656 -9.835938 C 14.332031 -9.085938 15.339844 -8.714844 16.625 -8.714844 C 17.839844 -8.714844 18.824219 -9.09375 19.574219 -9.859375 C 20.335938 -10.632812 20.714844 -11.628906 20.714844 -12.855469 C 20.714844 -14.105469 20.328125 -15.117188 19.546875 -15.886719 C 18.757812 -16.660156 17.78125 -17.050781 16.625 -17.050781 C 15.429688 -17.050781 14.441406 -16.660156 13.652344 -15.886719 Z M 11.007812 -18.566406 C 12.53125 -20.066406 14.402344 -20.816406 16.625 -20.816406 C 18.8125 -20.816406 20.667969 -20.066406 22.1875 -18.566406 C 23.71875 -17.058594 24.484375 -15.15625 24.484375 -12.855469 C 24.484375 -10.601562 23.742188 -8.722656 22.257812 -7.214844 C 20.769531 -5.703125 18.890625 -4.945312 16.625 -4.945312 C 14.289062 -4.945312 12.386719 -5.695312 10.914062 -7.191406 C 9.445312 -8.679688 8.714844 -10.566406 8.714844 -12.855469 C 8.714844 -15.15625 9.476562 -17.058594 11.007812 -18.566406 Z M 11.007812 -18.566406 "/></g></g></g><g fill="#5d0000" fill-opacity="1"><g transform="translate(147.305485, 61.476404)"><g><path d="M 1.128906 0 L 1.128906 -27.648438 L 13.785156 -27.648438 L 13.785156 -22.046875 L 11.902344 -22.046875 L 11.902344 -23.929688 L 12.003906 -23.929688 L 12.003906 -22.046875 L 10.320312 -22.890625 C 10.4375 -23.125 10.605469 -23.386719 10.824219 -23.679688 C 11.027344 -23.953125 11.410156 -24.371094 11.976562 -24.9375 C 12.554688 -25.515625 13.171875 -26.035156 13.828125 -26.5 C 14.542969 -27 15.433594 -27.441406 16.5 -27.816406 C 17.605469 -28.207031 18.734375 -28.402344 19.886719 -28.402344 C 21.035156 -28.402344 22.160156 -28.242188 23.269531 -27.925781 C 24.371094 -27.609375 25.214844 -27.273438 25.796875 -26.917969 L 24.808594 -25.3125 L 25.746094 -26.949219 L 27.984375 -25.667969 L 22.417969 -14.378906 L 20.578125 -15.941406 C 19.824219 -16.582031 18.691406 -16.898438 17.175781 -16.898438 C 16.457031 -16.898438 15.863281 -16.757812 15.394531 -16.472656 C 14.945312 -16.199219 14.640625 -15.894531 14.484375 -15.5625 C 14.210938 -14.988281 14.019531 -14.515625 13.914062 -14.148438 C 13.828125 -13.847656 13.785156 -13.652344 13.785156 -13.558594 L 13.785156 1.882812 L 1.128906 1.882812 Z M 4.898438 0 L 3.011719 0 L 3.011719 -1.882812 L 11.902344 -1.882812 L 11.902344 0 L 10.019531 0 L 10.019531 -13.558594 C 10.019531 -14.003906 10.109375 -14.542969 10.292969 -15.183594 C 10.457031 -15.75 10.71875 -16.417969 11.082031 -17.179688 C 11.558594 -18.1875 12.34375 -19.023438 13.433594 -19.6875 C 14.503906 -20.339844 15.753906 -20.667969 17.175781 -20.667969 C 19.613281 -20.667969 21.558594 -20.046875 23.015625 -18.8125 L 21.796875 -17.375 L 20.109375 -18.210938 L 23.824219 -25.742188 L 25.511719 -24.910156 L 24.578125 -23.273438 L 23.847656 -23.691406 L 23.824219 -23.707031 C 23.535156 -23.886719 23.003906 -24.085938 22.234375 -24.304688 C 21.464844 -24.523438 20.683594 -24.632812 19.886719 -24.632812 C 19.164062 -24.632812 18.453125 -24.511719 17.75 -24.265625 C 17.011719 -24.003906 16.429688 -23.722656 16.003906 -23.421875 C 15.519531 -23.082031 15.066406 -22.699219 14.640625 -22.273438 C 14.203125 -21.832031 13.933594 -21.550781 13.835938 -21.417969 C 13.753906 -21.308594 13.703125 -21.238281 13.6875 -21.207031 L 13.167969 -20.164062 L 10.019531 -20.164062 L 10.019531 -25.765625 L 11.902344 -25.765625 L 11.902344 -23.878906 L 3.011719 -23.878906 L 3.011719 -25.765625 L 4.898438 -25.765625 Z M 4.898438 0 "/></g></g></g><g fill="#5d0000" fill-opacity="1"><g transform="translate(172.312472, 61.476404)"><g><path d="M 3.382812 -1.917969 C 0.640625 -4.90625 -0.726562 -8.550781 -0.726562 -12.855469 C -0.726562 -17.160156 0.640625 -20.8125 3.378906 -23.820312 C 6.164062 -26.875 9.691406 -28.402344 13.960938 -28.402344 C 17.886719 -28.402344 21.136719 -27.152344 23.710938 -24.65625 L 22.398438 -23.304688 L 20.515625 -23.304688 L 20.515625 -45.074219 L 33.171875 -45.074219 L 33.171875 1.882812 L 20.617188 1.882812 L 20.617188 -2.914062 L 22.5 -2.914062 L 22.5 -1.03125 L 22.398438 -1.03125 L 22.398438 -2.914062 L 23.796875 -1.648438 C 21.210938 1.207031 17.933594 2.636719 13.960938 2.636719 C 9.691406 2.636719 6.167969 1.117188 3.382812 -1.917969 Z M 6.160156 -4.460938 C 8.195312 -2.242188 10.796875 -1.128906 13.960938 -1.128906 C 16.820312 -1.128906 19.167969 -2.144531 21.003906 -4.175781 L 21.5625 -4.796875 L 24.382812 -4.796875 L 24.382812 0 L 22.5 0 L 22.5 -1.882812 L 31.289062 -1.882812 L 31.289062 0 L 29.40625 0 L 29.40625 -43.191406 L 31.289062 -43.191406 L 31.289062 -41.308594 L 22.398438 -41.308594 L 22.398438 -43.191406 L 24.28125 -43.191406 L 24.28125 -18.851562 L 21.089844 -21.949219 C 19.242188 -23.738281 16.867188 -24.632812 13.960938 -24.632812 C 10.800781 -24.632812 8.199219 -23.515625 6.164062 -21.28125 C 4.078125 -18.996094 3.039062 -16.1875 3.039062 -12.855469 C 3.039062 -9.527344 4.078125 -6.730469 6.160156 -4.460938 Z M 13.652344 -15.886719 C 12.871094 -15.117188 12.480469 -14.105469 12.480469 -12.855469 C 12.480469 -11.597656 12.851562 -10.589844 13.597656 -9.835938 C 14.332031 -9.085938 15.339844 -8.714844 16.625 -8.714844 C 17.839844 -8.714844 18.824219 -9.09375 19.574219 -9.859375 C 20.335938 -10.632812 20.714844 -11.628906 20.714844 -12.855469 C 20.714844 -14.105469 20.328125 -15.117188 19.546875 -15.886719 C 18.757812 -16.660156 17.78125 -17.050781 16.625 -17.050781 C 15.429688 -17.050781 14.441406 -16.660156 13.652344 -15.886719 Z M 11.007812 -18.566406 C 12.53125 -20.066406 14.402344 -20.816406 16.625 -20.816406 C 18.8125 -20.816406 20.667969 -20.066406 22.1875 -18.566406 C 23.71875 -17.058594 24.484375 -15.15625 24.484375 -12.855469 C 24.484375 -10.601562 23.742188 -8.722656 22.257812 -7.214844 C 20.769531 -5.703125 18.890625 -4.945312 16.625 -4.945312 C 14.289062 -4.945312 12.386719 -5.695312 10.914062 -7.191406 C 9.445312 -8.679688 8.714844 -10.566406 8.714844 -12.855469 C 8.714844 -15.15625 9.476562 -17.058594 11.007812 -18.566406 Z M 11.007812 -18.566406 "/></g></g></g><g fill="#5d0000" fill-opacity="1"><g transform="translate(206.609209, 61.476404)"><g><path d="M 2.535156 -41.460938 C 3.941406 -42.863281 5.625 -43.566406 7.582031 -43.566406 C 9.542969 -43.566406 11.226562 -42.863281 12.632812 -41.460938 C 14.039062 -40.054688 14.742188 -38.371094 14.742188 -36.410156 C 14.742188 -34.453125 14.039062 -32.769531 12.632812 -31.363281 C 11.226562 -29.957031 9.542969 -29.253906 7.582031 -29.253906 C 5.625 -29.253906 3.941406 -29.957031 2.535156 -31.363281 C 1.128906 -32.769531 0.425781 -34.453125 0.425781 -36.410156 C 0.425781 -38.371094 1.128906 -40.054688 2.535156 -41.460938 Z M 5.199219 -38.796875 C 4.527344 -38.125 4.195312 -37.332031 4.195312 -36.410156 C 4.195312 -35.492188 4.527344 -34.695312 5.199219 -34.027344 C 5.867188 -33.355469 6.664062 -33.019531 7.582031 -33.019531 C 8.503906 -33.019531 9.296875 -33.355469 9.96875 -34.027344 C 10.636719 -34.695312 10.972656 -35.492188 10.972656 -36.410156 C 10.972656 -37.332031 10.636719 -38.125 9.96875 -38.796875 C 9.296875 -39.464844 8.503906 -39.800781 7.582031 -39.800781 C 6.664062 -39.800781 5.867188 -39.464844 5.199219 -38.796875 Z M 4.898438 -25.765625 L 4.898438 0 L 3.011719 0 L 3.011719 -1.882812 L 11.902344 -1.882812 L 11.902344 0 L 10.019531 0 L 10.019531 -25.765625 L 11.902344 -25.765625 L 11.902344 -23.878906 L 3.011719 -23.878906 L 3.011719 -25.765625 Z M 1.128906 -27.648438 L 13.785156 -27.648438 L 13.785156 1.882812 L 1.128906 1.882812 Z M 1.128906 -27.648438 "/></g></g></g><g fill="#5d0000" fill-opacity="1"><g transform="translate(221.774094, 61.476404)"><g><path d="M 1.03125 4.636719 L 9.859375 0.3125 L 10.75 1.785156 C 11.226562 2.570312 11.875 3.15625 12.699219 3.546875 C 13.605469 3.976562 14.746094 4.195312 16.121094 4.195312 C 17.246094 4.195312 18.300781 3.824219 19.289062 3.085938 C 20.105469 2.476562 20.515625 1.464844 20.515625 0.0507812 L 20.515625 -1.859375 L 22.398438 -1.859375 L 23.796875 -0.59375 C 21.847656 1.558594 18.570312 2.636719 13.960938 2.636719 C 9.691406 2.636719 6.167969 1.117188 3.382812 -1.917969 C 0.640625 -4.90625 -0.726562 -8.550781 -0.726562 -12.855469 C -0.726562 -17.160156 0.640625 -20.8125 3.378906 -23.820312 C 6.164062 -26.875 9.691406 -28.402344 13.960938 -28.402344 C 17.769531 -28.402344 20.957031 -27.210938 23.527344 -24.835938 L 22.25 -23.453125 L 22.25 -25.335938 L 22.398438 -25.335938 L 22.398438 -23.453125 L 20.515625 -23.453125 L 20.515625 -27.648438 L 33.171875 -27.648438 L 33.171875 0.703125 C 33.171875 5.484375 31.550781 9.199219 28.3125 11.851562 C 25.1875 14.414062 21.125 15.695312 16.121094 15.695312 C 12.128906 15.695312 8.808594 15 6.15625 13.609375 C 3.382812 12.152344 1.375 9.976562 0.128906 7.070312 L -0.578125 5.425781 Z M 2.6875 8.019531 L 1.859375 6.328125 L 3.589844 5.585938 C 4.484375 7.667969 5.921875 9.230469 7.90625 10.273438 C 10.007812 11.375 12.746094 11.929688 16.121094 11.929688 C 20.226562 11.929688 23.496094 10.929688 25.925781 8.9375 C 28.246094 7.039062 29.40625 4.292969 29.40625 0.703125 L 29.40625 -25.765625 L 31.289062 -25.765625 L 31.289062 -23.878906 L 22.398438 -23.878906 L 22.398438 -25.765625 L 24.28125 -25.765625 L 24.28125 -21.570312 L 21.511719 -21.570312 L 20.96875 -22.070312 C 19.121094 -23.78125 16.785156 -24.632812 13.960938 -24.632812 C 10.800781 -24.632812 8.199219 -23.515625 6.164062 -21.28125 C 4.078125 -18.996094 3.039062 -16.1875 3.039062 -12.855469 C 3.039062 -9.527344 4.078125 -6.730469 6.160156 -4.460938 C 8.195312 -2.242188 10.796875 -1.128906 13.960938 -1.128906 C 17.457031 -1.128906 19.800781 -1.792969 21.003906 -3.121094 L 24.28125 -6.75 L 24.28125 0.0507812 C 24.28125 2.722656 23.371094 4.738281 21.542969 6.105469 C 19.886719 7.339844 18.078125 7.960938 16.121094 7.960938 C 14.179688 7.960938 12.5 7.625 11.082031 6.949219 C 9.578125 6.234375 8.394531 5.164062 7.53125 3.738281 L 9.140625 2.761719 L 9.96875 4.453125 Z M 13.652344 -15.886719 C 12.871094 -15.117188 12.480469 -14.105469 12.480469 -12.855469 C 12.480469 -11.597656 12.851562 -10.589844 13.597656 -9.835938 C 14.332031 -9.085938 15.339844 -8.714844 16.625 -8.714844 C 17.839844 -8.714844 18.824219 -9.09375 19.574219 -9.859375 C 20.335938 -10.632812 20.714844 -11.628906 20.714844 -12.855469 C 20.714844 -14.105469 20.328125 -15.117188 19.546875 -15.886719 C 18.757812 -16.660156 17.78125 -17.050781 16.625 -17.050781 C 15.429688 -17.050781 14.441406 -16.660156 13.652344 -15.886719 Z M 11.007812 -18.566406 C 12.53125 -20.066406 14.402344 -20.816406 16.625 -20.816406 C 18.8125 -20.816406 20.667969 -20.066406 22.1875 -18.566406 C 23.71875 -17.058594 24.484375 -15.15625 24.484375 -12.855469 C 24.484375 -10.601562 23.742188 -8.722656 22.257812 -7.214844 C 20.769531 -5.703125 18.890625 -4.945312 16.625 -4.945312 C 14.289062 -4.945312 12.386719 -5.695312 10.914062 -7.191406 C 9.445312 -8.679688 8.714844 -10.566406 8.714844 -12.855469 C 8.714844 -15.15625 9.476562 -17.058594 11.007812 -18.566406 Z M 11.007812 -18.566406 "/></g></g></g><g fill="#5d0000" fill-opacity="1"><g transform="translate(256.070831, 61.476404)"><g><path d="M 3.382812 -1.917969 C 0.640625 -4.90625 -0.726562 -8.550781 -0.726562 -12.855469 C -0.726562 -17.160156 0.640625 -20.8125 3.378906 -23.820312 C 6.164062 -26.875 9.691406 -28.402344 13.960938 -28.402344 C 17.886719 -28.402344 21.136719 -27.152344 23.710938 -24.65625 L 22.398438 -23.304688 L 20.515625 -23.304688 L 20.515625 -27.648438 L 33.171875 -27.648438 L 33.171875 1.882812 L 20.617188 1.882812 L 20.617188 -2.914062 L 22.5 -2.914062 L 22.5 -1.03125 L 22.398438 -1.03125 L 22.398438 -2.914062 L 23.796875 -1.648438 C 21.210938 1.207031 17.933594 2.636719 13.960938 2.636719 C 9.691406 2.636719 6.167969 1.117188 3.382812 -1.917969 Z M 6.160156 -4.460938 C 8.195312 -2.242188 10.796875 -1.128906 13.960938 -1.128906 C 16.820312 -1.128906 19.167969 -2.144531 21.003906 -4.175781 L 21.5625 -4.796875 L 24.382812 -4.796875 L 24.382812 0 L 22.5 0 L 22.5 -1.882812 L 31.289062 -1.882812 L 31.289062 0 L 29.40625 0 L 29.40625 -25.765625 L 31.289062 -25.765625 L 31.289062 -23.878906 L 22.398438 -23.878906 L 22.398438 -25.765625 L 24.28125 -25.765625 L 24.28125 -18.851562 L 21.089844 -21.949219 C 19.242188 -23.738281 16.867188 -24.632812 13.960938 -24.632812 C 10.800781 -24.632812 8.199219 -23.515625 6.164062 -21.28125 C 4.078125 -18.996094 3.039062 -16.1875 3.039062 -12.855469 C 3.039062 -9.527344 4.078125 -6.730469 6.160156 -4.460938 Z M 13.652344 -15.886719 C 12.871094 -15.117188 12.480469 -14.105469 12.480469 -12.855469 C 12.480469 -11.597656 12.851562 -10.589844 13.597656 -9.835938 C 14.332031 -9.085938 15.339844 -8.714844 16.625 -8.714844 C 17.839844 -8.714844 18.824219 -9.09375 19.574219 -9.859375 C 20.335938 -10.632812 20.714844 -11.628906 20.714844 -12.855469 C 20.714844 -14.105469 20.328125 -15.117188 19.546875 -15.886719 C 18.757812 -16.660156 17.78125 -17.050781 16.625 -17.050781 C 15.429688 -17.050781 14.441406 -16.660156 13.652344 -15.886719 Z M 11.007812 -18.566406 C 12.53125 -20.066406 14.402344 -20.816406 16.625 -20.816406 C 18.8125 -20.816406 20.667969 -20.066406 22.1875 -18.566406 C 23.71875 -17.058594 24.484375 -15.15625 24.484375 -12.855469 C 24.484375 -10.601562 23.742188 -8.722656 22.257812 -7.214844 C 20.769531 -5.703125 18.890625 -4.945312 16.625 -4.945312 C 14.289062 -4.945312 12.386719 -5.695312 10.914062 -7.191406 C 9.445312 -8.679688 8.714844 -10.566406 8.714844 -12.855469 C 8.714844 -15.15625 9.476562 -17.058594 11.007812 -18.566406 Z M 11.007812 -18.566406 "/></g></g></g><g fill="#5d0000" fill-opacity="1"><g transform="translate(290.367555, 61.476404)"><g><path d="M 1.128906 0 L 1.128906 -27.648438 L 13.785156 -27.648438 L 13.785156 -23.050781 L 11.902344 -23.050781 L 11.902344 -24.933594 L 12.003906 -24.933594 L 12.003906 -23.050781 L 10.671875 -24.382812 C 13.347656 -27.0625 16.253906 -28.402344 19.386719 -28.402344 C 20.824219 -28.402344 22.25 -28.210938 23.664062 -27.835938 C 25.09375 -27.453125 26.464844 -26.863281 27.773438 -26.066406 C 29.210938 -25.191406 30.371094 -23.964844 31.25 -22.386719 C 32.128906 -20.8125 32.570312 -19.007812 32.570312 -16.976562 L 32.570312 1.882812 L 19.914062 1.882812 L 19.914062 -14.566406 C 19.914062 -15.441406 19.636719 -16.207031 19.082031 -16.859375 C 18.601562 -17.421875 17.96875 -17.703125 17.175781 -17.703125 C 16.339844 -17.703125 15.558594 -17.359375 14.835938 -16.667969 C 14.136719 -16 13.785156 -15.300781 13.785156 -14.566406 L 13.785156 1.882812 L 1.128906 1.882812 Z M 4.898438 0 L 3.011719 0 L 3.011719 -1.882812 L 11.902344 -1.882812 L 11.902344 0 L 10.019531 0 L 10.019531 -14.566406 C 10.019531 -16.375 10.757812 -17.984375 12.234375 -19.394531 C 13.6875 -20.777344 15.335938 -21.46875 17.175781 -21.46875 C 19.128906 -21.46875 20.722656 -20.746094 21.949219 -19.300781 C 23.105469 -17.945312 23.679688 -16.367188 23.679688 -14.566406 L 23.679688 0 L 21.796875 0 L 21.796875 -1.882812 L 30.6875 -1.882812 L 30.6875 0 L 28.800781 0 L 28.800781 -16.976562 C 28.800781 -18.355469 28.523438 -19.546875 27.960938 -20.550781 C 27.402344 -21.550781 26.6875 -22.316406 25.8125 -22.847656 C 24.8125 -23.457031 23.773438 -23.90625 22.691406 -24.195312 C 21.597656 -24.488281 20.492188 -24.632812 19.386719 -24.632812 C 17.292969 -24.632812 15.277344 -23.664062 13.335938 -21.71875 L 12.785156 -21.167969 L 10.019531 -21.167969 L 10.019531 -25.765625 L 11.902344 -25.765625 L 11.902344 -23.878906 L 3.011719 -23.878906 L 3.011719 -25.765625 L 4.898438 -25.765625 Z M 4.898438 0 "/></g></g></g><g fill="#5d0000" fill-opacity="1"><g transform="translate(81.23963, 131.177692)"><g><path d="M 42.363281 -23.203125 L 42.363281 -14.011719 L 42.320312 -13.8125 C 41.144531 -8.410156 38.546875 -4.304688 34.527344 -1.496094 C 30.585938 1.257812 26.191406 2.636719 21.34375 2.636719 C 15.210938 2.636719 9.988281 0.347656 5.683594 -4.234375 C 1.410156 -8.78125 -0.726562 -14.269531 -0.726562 -20.691406 C -0.726562 -27.210938 1.363281 -32.726562 5.550781 -37.238281 C 9.773438 -41.792969 15.039062 -44.070312 21.34375 -44.070312 C 28.664062 -44.070312 34.46875 -41.484375 38.765625 -36.308594 L 39.808594 -35.046875 L 30.855469 -25.21875 L 29.539062 -27.328125 C 28.601562 -28.835938 27.496094 -29.957031 26.230469 -30.6875 C 24.980469 -31.40625 23.535156 -31.765625 21.898438 -31.765625 C 19.582031 -31.765625 17.582031 -30.734375 15.898438 -28.667969 C 14.121094 -26.484375 13.234375 -23.828125 13.234375 -20.691406 C 13.234375 -17.628906 14.121094 -15.023438 15.890625 -12.875 C 17.574219 -10.835938 19.574219 -9.820312 21.898438 -9.820312 C 23.863281 -9.820312 25.566406 -10.40625 27.011719 -11.582031 C 28.339844 -12.660156 29.003906 -14.105469 29.003906 -15.921875 L 30.886719 -15.921875 L 30.886719 -14.039062 L 19.460938 -14.039062 L 19.460938 -25.085938 L 42.363281 -25.085938 Z M 38.597656 -23.203125 L 40.480469 -23.203125 L 40.480469 -21.320312 L 21.34375 -21.320312 L 21.34375 -23.203125 L 23.226562 -23.203125 L 23.226562 -15.921875 L 21.34375 -15.921875 L 21.34375 -17.804688 L 32.769531 -17.804688 L 32.769531 -15.921875 C 32.769531 -12.914062 31.644531 -10.492188 29.386719 -8.660156 C 27.25 -6.921875 24.753906 -6.050781 21.898438 -6.050781 C 18.390625 -6.050781 15.421875 -7.527344 12.988281 -10.476562 C 10.640625 -13.320312 9.46875 -16.726562 9.46875 -20.691406 C 9.46875 -24.722656 10.636719 -28.171875 12.980469 -31.046875 C 15.414062 -34.039062 18.386719 -35.53125 21.898438 -35.53125 C 24.207031 -35.53125 26.28125 -35.003906 28.109375 -33.949219 C 29.921875 -32.90625 31.464844 -31.363281 32.738281 -29.320312 L 31.136719 -28.324219 L 29.746094 -29.59375 L 35.921875 -36.375 L 37.316406 -35.105469 L 35.867188 -33.902344 C 32.324219 -38.167969 27.484375 -40.304688 21.34375 -40.304688 C 16.132812 -40.304688 11.789062 -38.429688 8.3125 -34.679688 C 4.796875 -30.886719 3.039062 -26.226562 3.039062 -20.691406 C 3.039062 -15.261719 4.835938 -10.636719 8.429688 -6.8125 C 11.992188 -3.023438 16.296875 -1.128906 21.34375 -1.128906 C 25.402344 -1.128906 29.078125 -2.28125 32.367188 -4.582031 C 35.582031 -6.828125 37.671875 -10.171875 38.640625 -14.613281 L 40.480469 -14.214844 L 38.597656 -14.214844 Z M 38.597656 -23.203125 "/></g></g></g><g fill="#5d0000" fill-opacity="1"><g transform="translate(122.86773, 131.177692)"><g><path d="M 13.285156 -25.765625 L 13.285156 -13.511719 C 13.285156 -11.371094 13.550781 -9.929688 14.085938 -9.183594 C 14.480469 -8.636719 15.273438 -8.363281 16.472656 -8.363281 C 17.671875 -8.363281 18.464844 -8.636719 18.859375 -9.183594 C 19.394531 -9.929688 19.660156 -11.371094 19.660156 -13.511719 L 19.660156 -27.648438 L 32.316406 -27.648438 L 32.316406 -11.351562 C 32.316406 -6.484375 30.984375 -2.917969 28.3125 -0.648438 C 25.734375 1.542969 21.789062 2.636719 16.472656 2.636719 C 11.15625 2.636719 7.210938 1.542969 4.632812 -0.648438 C 1.960938 -2.917969 0.628906 -6.484375 0.628906 -11.351562 L 0.628906 -27.648438 L 13.285156 -27.648438 Z M 9.515625 -25.765625 L 11.402344 -25.765625 L 11.402344 -23.878906 L 2.511719 -23.878906 L 2.511719 -25.765625 L 4.394531 -25.765625 L 4.394531 -11.351562 C 4.394531 -7.644531 5.285156 -5.035156 7.070312 -3.519531 C 8.945312 -1.925781 12.078125 -1.128906 16.472656 -1.128906 C 20.867188 -1.128906 24 -1.925781 25.875 -3.519531 C 27.660156 -5.035156 28.550781 -7.644531 28.550781 -11.351562 L 28.550781 -25.765625 L 30.433594 -25.765625 L 30.433594 -23.878906 L 21.546875 -23.878906 L 21.546875 -25.765625 L 23.429688 -25.765625 L 23.429688 -13.511719 C 23.429688 -10.5625 22.925781 -8.386719 21.917969 -6.988281 C 20.773438 -5.390625 18.957031 -4.59375 16.472656 -4.59375 C 13.988281 -4.59375 12.171875 -5.390625 11.027344 -6.988281 C 10.019531 -8.386719 9.515625 -10.5625 9.515625 -13.511719 Z M 9.515625 -25.765625 "/></g></g></g><g fill="#5d0000" fill-opacity="1"><g transform="translate(155.808671, 131.177692)"><g><path d="M 2.535156 -41.460938 C 3.941406 -42.863281 5.625 -43.566406 7.582031 -43.566406 C 9.542969 -43.566406 11.226562 -42.863281 12.632812 -41.460938 C 14.039062 -40.054688 14.742188 -38.371094 14.742188 -36.410156 C 14.742188 -34.453125 14.039062 -32.769531 12.632812 -31.363281 C 11.226562 -29.957031 9.542969 -29.253906 7.582031 -29.253906 C 5.625 -29.253906 3.941406 -29.957031 2.535156 -31.363281 C 1.128906 -32.769531 0.425781 -34.453125 0.425781 -36.410156 C 0.425781 -38.371094 1.128906 -40.054688 2.535156 -41.460938 Z M 5.199219 -38.796875 C 4.527344 -38.125 4.195312 -37.332031 4.195312 -36.410156 C 4.195312 -35.492188 4.527344 -34.695312 5.199219 -34.027344 C 5.867188 -33.355469 6.664062 -33.019531 7.582031 -33.019531 C 8.503906 -33.019531 9.296875 -33.355469 9.96875 -34.027344 C 10.636719 -34.695312 10.972656 -35.492188 10.972656 -36.410156 C 10.972656 -37.332031 10.636719 -38.125 9.96875 -38.796875 C 9.296875 -39.464844 8.503906 -39.800781 7.582031 -39.800781 C 6.664062 -39.800781 5.867188 -39.464844 5.199219 -38.796875 Z M 4.898438 -25.765625 L 4.898438 0 L 3.011719 0 L 3.011719 -1.882812 L 11.902344 -1.882812 L 11.902344 0 L 10.019531 0 L 10.019531 -25.765625 L 11.902344 -25.765625 L 11.902344 -23.878906 L 3.011719 -23.878906 L 3.011719 -25.765625 Z M 1.128906 -27.648438 L 13.785156 -27.648438 L 13.785156 1.882812 L 1.128906 1.882812 Z M 1.128906 -27.648438 "/></g></g></g><g fill="#5d0000" fill-opacity="1"><g transform="translate(170.973556, 131.177692)"><g><path d="M 1.128906 -45.074219 L 13.785156 -45.074219 L 13.785156 1.882812 L 1.128906 1.882812 Z M 4.898438 -41.308594 L 4.898438 -1.882812 L 10.019531 -1.882812 L 10.019531 -41.308594 Z M 4.898438 -41.308594 "/></g></g></g><g fill="#5d0000" fill-opacity="1"><g transform="translate(185.887362, 131.177692)"><g><path d="M 3.382812 -1.917969 C 0.640625 -4.90625 -0.726562 -8.550781 -0.726562 -12.855469 C -0.726562 -17.160156 0.640625 -20.8125 3.378906 -23.820312 C 6.164062 -26.875 9.691406 -28.402344 13.960938 -28.402344 C 17.886719 -28.402344 21.136719 -27.152344 23.710938 -24.65625 L 22.398438 -23.304688 L 20.515625 -23.304688 L 20.515625 -45.074219 L 33.171875 -45.074219 L 33.171875 1.882812 L 20.617188 1.882812 L 20.617188 -2.914062 L 22.5 -2.914062 L 22.5 -1.03125 L 22.398438 -1.03125 L 22.398438 -2.914062 L 23.796875 -1.648438 C 21.210938 1.207031 17.933594 2.636719 13.960938 2.636719 C 9.691406 2.636719 6.167969 1.117188 3.382812 -1.917969 Z M 6.160156 -4.460938 C 8.195312 -2.242188 10.796875 -1.128906 13.960938 -1.128906 C 16.820312 -1.128906 19.167969 -2.144531 21.003906 -4.175781 L 21.5625 -4.796875 L 24.382812 -4.796875 L 24.382812 0 L 22.5 0 L 22.5 -1.882812 L 31.289062 -1.882812 L 31.289062 0 L 29.40625 0 L 29.40625 -43.191406 L 31.289062 -43.191406 L 31.289062 -41.308594 L 22.398438 -41.308594 L 22.398438 -43.191406 L 24.28125 -43.191406 L 24.28125 -18.851562 L 21.089844 -21.949219 C 19.242188 -23.738281 16.867188 -24.632812 13.960938 -24.632812 C 10.800781 -24.632812 8.199219 -23.515625 6.164062 -21.28125 C 4.078125 -18.996094 3.039062 -16.1875 3.039062 -12.855469 C 3.039062 -9.527344 4.078125 -6.730469 6.160156 -4.460938 Z M 13.652344 -15.886719 C 12.871094 -15.117188 12.480469 -14.105469 12.480469 -12.855469 C 12.480469 -11.597656 12.851562 -10.589844 13.597656 -9.835938 C 14.332031 -9.085938 15.339844 -8.714844 16.625 -8.714844 C 17.839844 -8.714844 18.824219 -9.09375 19.574219 -9.859375 C 20.335938 -10.632812 20.714844 -11.628906 20.714844 -12.855469 C 20.714844 -14.105469 20.328125 -15.117188 19.546875 -15.886719 C 18.757812 -16.660156 17.78125 -17.050781 16.625 -17.050781 C 15.429688 -17.050781 14.441406 -16.660156 13.652344 -15.886719 Z M 11.007812 -18.566406 C 12.53125 -20.066406 14.402344 -20.816406 16.625 -20.816406 C 18.8125 -20.816406 20.667969 -20.066406 22.1875 -18.566406 C 23.71875 -17.058594 24.484375 -15.15625 24.484375 -12.855469 C 24.484375 -10.601562 23.742188 -8.722656 22.257812 -7.214844 C 20.769531 -5.703125 18.890625 -4.945312 16.625 -4.945312 C 14.289062 -4.945312 12.386719 -5.695312 10.914062 -7.191406 C 9.445312 -8.679688 8.714844 -10.566406 8.714844 -12.855469 C 8.714844 -15.15625 9.476562 -17.058594 11.007812 -18.566406 Z M 11.007812 -18.566406 "/></g></g></g><g fill="#5d0000" fill-opacity="1"><g transform="translate(220.184098, 131.177692)"><g><path d="M 1.128906 0 L 1.128906 -45.074219 L 13.785156 -45.074219 L 13.785156 -23.050781 L 11.902344 -23.050781 L 11.902344 -24.933594 L 12.003906 -24.933594 L 12.003906 -23.050781 L 10.671875 -24.382812 C 13.347656 -27.0625 16.253906 -28.402344 19.386719 -28.402344 C 20.824219 -28.402344 22.25 -28.210938 23.664062 -27.835938 C 25.09375 -27.453125 26.464844 -26.863281 27.773438 -26.066406 C 29.210938 -25.191406 30.371094 -23.964844 31.25 -22.386719 C 32.128906 -20.8125 32.570312 -19.007812 32.570312 -16.976562 L 32.570312 1.882812 L 19.914062 1.882812 L 19.914062 -14.566406 C 19.914062 -15.441406 19.636719 -16.207031 19.082031 -16.859375 C 18.601562 -17.421875 17.96875 -17.703125 17.175781 -17.703125 C 16.339844 -17.703125 15.558594 -17.359375 14.835938 -16.667969 C 14.136719 -16 13.785156 -15.300781 13.785156 -14.566406 L 13.785156 1.882812 L 1.128906 1.882812 Z M 4.898438 0 L 3.011719 0 L 3.011719 -1.882812 L 11.902344 -1.882812 L 11.902344 0 L 10.019531 0 L 10.019531 -14.566406 C 10.019531 -16.375 10.757812 -17.984375 12.234375 -19.394531 C 13.6875 -20.777344 15.335938 -21.46875 17.175781 -21.46875 C 19.128906 -21.46875 20.722656 -20.746094 21.949219 -19.300781 C 23.105469 -17.945312 23.679688 -16.367188 23.679688 -14.566406 L 23.679688 0 L 21.796875 0 L 21.796875 -1.882812 L 30.6875 -1.882812 L 30.6875 0 L 28.800781 0 L 28.800781 -16.976562 C 28.800781 -18.355469 28.523438 -19.546875 27.960938 -20.550781 C 27.402344 -21.550781 26.6875 -22.316406 25.8125 -22.847656 C 24.8125 -23.457031 23.773438 -23.90625 22.691406 -24.195312 C 21.597656 -24.488281 20.492188 -24.632812 19.386719 -24.632812 C 17.292969 -24.632812 15.277344 -23.664062 13.335938 -21.71875 L 12.785156 -21.167969 L 10.019531 -21.167969 L 10.019531 -43.191406 L 11.902344 -43.191406 L 11.902344 -41.308594 L 3.011719 -41.308594 L 3.011719 -43.191406 L 4.898438 -43.191406 Z M 4.898438 0 "/></g></g></g><g fill="#5d0000" fill-opacity="1"><g transform="translate(253.376108, 131.177692)"><g><path d="M 3.382812 -1.917969 C 0.640625 -4.90625 -0.726562 -8.550781 -0.726562 -12.855469 C -0.726562 -17.160156 0.640625 -20.8125 3.378906 -23.820312 C 6.164062 -26.875 9.691406 -28.402344 13.960938 -28.402344 C 17.886719 -28.402344 21.136719 -27.152344 23.710938 -24.65625 L 22.398438 -23.304688 L 20.515625 -23.304688 L 20.515625 -27.648438 L 33.171875 -27.648438 L 33.171875 1.882812 L 20.617188 1.882812 L 20.617188 -2.914062 L 22.5 -2.914062 L 22.5 -1.03125 L 22.398438 -1.03125 L 22.398438 -2.914062 L 23.796875 -1.648438 C 21.210938 1.207031 17.933594 2.636719 13.960938 2.636719 C 9.691406 2.636719 6.167969 1.117188 3.382812 -1.917969 Z M 6.160156 -4.460938 C 8.195312 -2.242188 10.796875 -1.128906 13.960938 -1.128906 C 16.820312 -1.128906 19.167969 -2.144531 21.003906 -4.175781 L 21.5625 -4.796875 L 24.382812 -4.796875 L 24.382812 0 L 22.5 0 L 22.5 -1.882812 L 31.289062 -1.882812 L 31.289062 0 L 29.40625 0 L 29.40625 -25.765625 L 31.289062 -25.765625 L 31.289062 -23.878906 L 22.398438 -23.878906 L 22.398438 -25.765625 L 24.28125 -25.765625 L 24.28125 -18.851562 L 21.089844 -21.949219 C 19.242188 -23.738281 16.867188 -24.632812 13.960938 -24.632812 C 10.800781 -24.632812 8.199219 -23.515625 6.164062 -21.28125 C 4.078125 -18.996094 3.039062 -16.1875 3.039062 -12.855469 C 3.039062 -9.527344 4.078125 -6.730469 6.160156 -4.460938 Z M 13.652344 -15.886719 C 12.871094 -15.117188 12.480469 -14.105469 12.480469 -12.855469 C 12.480469 -11.597656 12.851562 -10.589844 13.597656 -9.835938 C 14.332031 -9.085938 15.339844 -8.714844 16.625 -8.714844 C 17.839844 -8.714844 18.824219 -9.09375 19.574219 -9.859375 C 20.335938 -10.632812 20.714844 -11.628906 20.714844 -12.855469 C 20.714844 -14.105469 20.328125 -15.117188 19.546875 -15.886719 C 18.757812 -16.660156 17.78125 -17.050781 16.625 -17.050781 C 15.429688 -17.050781 14.441406 -16.660156 13.652344 -15.886719 Z M 11.007812 -18.566406 C 12.53125 -20.066406 14.402344 -20.816406 16.625 -20.816406 C 18.8125 -20.816406 20.667969 -20.066406 22.1875 -18.566406 C 23.71875 -17.058594 24.484375 -15.15625 24.484375 -12.855469 C 24.484375 -10.601562 23.742188 -8.722656 22.257812 -7.214844 C 20.769531 -5.703125 18.890625 -4.945312 16.625 -4.945312 C 14.289062 -4.945312 12.386719 -5.695312 10.914062 -7.191406 C 9.445312 -8.679688 8.714844 -10.566406 8.714844 -12.855469 C 8.714844 -15.15625 9.476562 -17.058594 11.007812 -18.566406 Z M 11.007812 -18.566406 "/></g></g></g><g fill="#5d0000" fill-opacity="1"><g transform="translate(287.672844, 131.177692)"><g><path d="M 1.128906 -45.074219 L 13.785156 -45.074219 L 13.785156 1.882812 L 1.128906 1.882812 Z M 4.898438 -41.308594 L 4.898438 -1.882812 L 10.019531 -1.882812 L 10.019531 -41.308594 Z M 4.898438 -41.308594 "/></g></g></g><g fill="#5d0000" fill-opacity="1"><g transform="translate(302.586661, 131.177692)"><g><path d="M 1.128906 -45.074219 L 13.785156 -45.074219 L 13.785156 1.882812 L 1.128906 1.882812 Z M 4.898438 -41.308594 L 4.898438 -1.882812 L 10.019531 -1.882812 L 10.019531 -41.308594 Z M 4.898438 -41.308594 "/></g></g></g><g fill="#5d0000" fill-opacity="1"><g transform="translate(105.44537, 200.878979)"><g><path d="M 35.386719 0.148438 L 33.429688 -24.410156 L 35.304688 -24.558594 L 35.304688 -22.675781 L 35.054688 -22.675781 L 35.054688 -24.558594 L 36.832031 -23.9375 L 27.90625 1.632812 L 19.605469 1.632812 L 10.675781 -23.9375 L 12.457031 -24.558594 L 12.457031 -22.675781 L 12.203125 -22.675781 L 12.203125 -24.558594 L 14.082031 -24.410156 L 11.984375 1.882812 L -1.257812 1.882812 L 2.796875 -43.316406 L 15.859375 -43.316406 L 25.511719 -18.203125 L 23.753906 -17.527344 L 21.996094 -18.203125 L 31.652344 -43.316406 L 44.710938 -43.316406 L 48.765625 1.882812 L 35.527344 1.882812 Z M 39.140625 -0.148438 L 37.265625 0 L 37.265625 -1.882812 L 46.707031 -1.882812 L 46.707031 0 L 44.832031 0.167969 L 41.113281 -41.265625 L 42.992188 -41.433594 L 42.992188 -39.550781 L 32.945312 -39.550781 L 32.945312 -41.433594 L 34.703125 -40.757812 L 23.753906 -12.277344 L 12.804688 -40.757812 L 14.566406 -41.433594 L 14.566406 -39.550781 L 4.519531 -39.550781 L 4.519531 -41.433594 L 6.394531 -41.265625 L 2.679688 0.167969 L 0.804688 0 L 0.804688 -1.882812 L 10.246094 -1.882812 L 10.246094 0 L 8.367188 -0.148438 L 10.464844 -26.441406 L 13.792969 -26.441406 L 22.722656 -0.871094 L 20.941406 -0.25 L 20.941406 -2.132812 L 26.566406 -2.132812 L 26.566406 -0.25 L 24.789062 -0.871094 L 33.71875 -26.441406 L 37.046875 -26.441406 Z M 39.140625 -0.148438 "/></g></g></g><g fill="#5d0000" fill-opacity="1"><g transform="translate(152.948605, 200.878979)"><g><path d="M 3.382812 -1.917969 C 0.640625 -4.90625 -0.726562 -8.550781 -0.726562 -12.855469 C -0.726562 -17.160156 0.640625 -20.8125 3.378906 -23.820312 C 6.164062 -26.875 9.691406 -28.402344 13.960938 -28.402344 C 17.886719 -28.402344 21.136719 -27.152344 23.710938 -24.65625 L 22.398438 -23.304688 L 20.515625 -23.304688 L 20.515625 -27.648438 L 33.171875 -27.648438 L 33.171875 1.882812 L 20.617188 1.882812 L 20.617188 -2.914062 L 22.5 -2.914062 L 22.5 -1.03125 L 22.398438 -1.03125 L 22.398438 -2.914062 L 23.796875 -1.648438 C 21.210938 1.207031 17.933594 2.636719 13.960938 2.636719 C 9.691406 2.636719 6.167969 1.117188 3.382812 -1.917969 Z M 6.160156 -4.460938 C 8.195312 -2.242188 10.796875 -1.128906 13.960938 -1.128906 C 16.820312 -1.128906 19.167969 -2.144531 21.003906 -4.175781 L 21.5625 -4.796875 L 24.382812 -4.796875 L 24.382812 0 L 22.5 0 L 22.5 -1.882812 L 31.289062 -1.882812 L 31.289062 0 L 29.40625 0 L 29.40625 -25.765625 L 31.289062 -25.765625 L 31.289062 -23.878906 L 22.398438 -23.878906 L 22.398438 -25.765625 L 24.28125 -25.765625 L 24.28125 -18.851562 L 21.089844 -21.949219 C 19.242188 -23.738281 16.867188 -24.632812 13.960938 -24.632812 C 10.800781 -24.632812 8.199219 -23.515625 6.164062 -21.28125 C 4.078125 -18.996094 3.039062 -16.1875 3.039062 -12.855469 C 3.039062 -9.527344 4.078125 -6.730469 6.160156 -4.460938 Z M 13.652344 -15.886719 C 12.871094 -15.117188 12.480469 -14.105469 12.480469 -12.855469 C 12.480469 -11.597656 12.851562 -10.589844 13.597656 -9.835938 C 14.332031 -9.085938 15.339844 -8.714844 16.625 -8.714844 C 17.839844 -8.714844 18.824219 -9.09375 19.574219 -9.859375 C 20.335938 -10.632812 20.714844 -11.628906 20.714844 -12.855469 C 20.714844 -14.105469 20.328125 -15.117188 19.546875 -15.886719 C 18.757812 -16.660156 17.78125 -17.050781 16.625 -17.050781 C 15.429688 -17.050781 14.441406 -16.660156 13.652344 -15.886719 Z M 11.007812 -18.566406 C 12.53125 -20.066406 14.402344 -20.816406 16.625 -20.816406 C 18.8125 -20.816406 20.667969 -20.066406 22.1875 -18.566406 C 23.71875 -17.058594 24.484375 -15.15625 24.484375 -12.855469 C 24.484375 -10.601562 23.742188 -8.722656 22.257812 -7.214844 C 20.769531 -5.703125 18.890625 -4.945312 16.625 -4.945312 C 14.289062 -4.945312 12.386719 -5.695312 10.914062 -7.191406 C 9.445312 -8.679688 8.714844 -10.566406 8.714844 -12.855469 C 8.714844 -15.15625 9.476562 -17.058594 11.007812 -18.566406 Z M 11.007812 -18.566406 "/></g></g></g><g fill="#5d0000" fill-opacity="1"><g transform="translate(187.245341, 200.878979)"><g><path d="M 1.128906 0 L 1.128906 -27.648438 L 13.785156 -27.648438 L 13.785156 -22.046875 L 11.902344 -22.046875 L 11.902344 -23.929688 L 12.003906 -23.929688 L 12.003906 -22.046875 L 10.320312 -22.890625 C 10.4375 -23.125 10.605469 -23.386719 10.824219 -23.679688 C 11.027344 -23.953125 11.410156 -24.371094 11.976562 -24.9375 C 12.554688 -25.515625 13.171875 -26.035156 13.828125 -26.5 C 14.542969 -27 15.433594 -27.441406 16.5 -27.816406 C 17.605469 -28.207031 18.734375 -28.402344 19.886719 -28.402344 C 21.035156 -28.402344 22.160156 -28.242188 23.269531 -27.925781 C 24.371094 -27.609375 25.214844 -27.273438 25.796875 -26.917969 L 24.808594 -25.3125 L 25.746094 -26.949219 L 27.984375 -25.667969 L 22.417969 -14.378906 L 20.578125 -15.941406 C 19.824219 -16.582031 18.691406 -16.898438 17.175781 -16.898438 C 16.457031 -16.898438 15.863281 -16.757812 15.394531 -16.472656 C 14.945312 -16.199219 14.640625 -15.894531 14.484375 -15.5625 C 14.210938 -14.988281 14.019531 -14.515625 13.914062 -14.148438 C 13.828125 -13.847656 13.785156 -13.652344 13.785156 -13.558594 L 13.785156 1.882812 L 1.128906 1.882812 Z M 4.898438 0 L 3.011719 0 L 3.011719 -1.882812 L 11.902344 -1.882812 L 11.902344 0 L 10.019531 0 L 10.019531 -13.558594 C 10.019531 -14.003906 10.109375 -14.542969 10.292969 -15.183594 C 10.457031 -15.75 10.71875 -16.417969 11.082031 -17.179688 C 11.558594 -18.1875 12.34375 -19.023438 13.433594 -19.6875 C 14.503906 -20.339844 15.753906 -20.667969 17.175781 -20.667969 C 19.613281 -20.667969 21.558594 -20.046875 23.015625 -18.8125 L 21.796875 -17.375 L 20.109375 -18.210938 L 23.824219 -25.742188 L 25.511719 -24.910156 L 24.578125 -23.273438 L 23.847656 -23.691406 L 23.824219 -23.707031 C 23.535156 -23.886719 23.003906 -24.085938 22.234375 -24.304688 C 21.464844 -24.523438 20.683594 -24.632812 19.886719 -24.632812 C 19.164062 -24.632812 18.453125 -24.511719 17.75 -24.265625 C 17.011719 -24.003906 16.429688 -23.722656 16.003906 -23.421875 C 15.519531 -23.082031 15.066406 -22.699219 14.640625 -22.273438 C 14.203125 -21.832031 13.933594 -21.550781 13.835938 -21.417969 C 13.753906 -21.308594 13.703125 -21.238281 13.6875 -21.207031 L 13.167969 -20.164062 L 10.019531 -20.164062 L 10.019531 -25.765625 L 11.902344 -25.765625 L 11.902344 -23.878906 L 3.011719 -23.878906 L 3.011719 -25.765625 L 4.898438 -25.765625 Z M 4.898438 0 "/></g></g></g><g fill="#5d0000" fill-opacity="1"><g transform="translate(212.252329, 200.878979)"><g><path d="M 33.777344 -24.433594 L 21.523438 -12.128906 L 20.1875 -13.460938 L 21.519531 -14.792969 L 38.195312 1.882812 L 21.417969 1.882812 L 10.570312 -8.964844 L 11.902344 -10.296875 L 13.785156 -10.296875 L 13.785156 1.882812 L 1.128906 1.882812 L 1.128906 -45.074219 L 13.785156 -45.074219 L 13.785156 -16.773438 L 11.902344 -16.773438 L 10.570312 -18.105469 L 20.113281 -27.648438 L 36.976562 -27.648438 Z M 31.109375 -27.09375 L 32.445312 -25.765625 L 32.445312 -23.878906 L 20.890625 -23.878906 L 20.890625 -25.765625 L 22.222656 -24.433594 L 10.019531 -12.226562 L 10.019531 -43.191406 L 11.902344 -43.191406 L 11.902344 -41.308594 L 3.011719 -41.308594 L 3.011719 -43.191406 L 4.898438 -43.191406 L 4.898438 0 L 3.011719 0 L 3.011719 -1.882812 L 11.902344 -1.882812 L 11.902344 0 L 10.019531 0 L 10.019531 -14.84375 L 23.53125 -1.332031 L 22.199219 0 L 22.199219 -1.882812 L 33.648438 -1.882812 L 33.648438 0 L 32.316406 1.332031 L 17.527344 -13.457031 Z M 31.109375 -27.09375 "/></g></g></g><g fill="#5d0000" fill-opacity="1"><g transform="translate(243.435552, 200.878979)"><g><path d="M 29.078125 -9.769531 L 10.394531 -9.769531 L 10.394531 -11.652344 L 12.28125 -11.652344 C 12.28125 -10.476562 12.613281 -9.640625 13.277344 -9.144531 C 14.117188 -8.523438 15.011719 -8.210938 15.972656 -8.210938 C 17.136719 -8.210938 18.011719 -8.347656 18.597656 -8.617188 C 19.214844 -8.898438 19.972656 -9.519531 20.878906 -10.480469 L 21.835938 -11.5 L 31.335938 -6.753906 L 30.292969 -5.011719 C 28.769531 -2.453125 26.726562 -0.53125 24.175781 0.753906 C 21.683594 2.007812 18.730469 2.636719 15.316406 2.636719 C 10.929688 2.636719 7.164062 1.132812 4.019531 -1.878906 C 0.855469 -4.910156 -0.726562 -8.570312 -0.726562 -12.855469 C -0.726562 -17.140625 0.851562 -20.808594 4.015625 -23.855469 C 7.160156 -26.886719 10.925781 -28.402344 15.316406 -28.402344 C 19.894531 -28.402344 23.640625 -27.054688 26.5625 -24.363281 C 29.53125 -21.628906 31.011719 -17.792969 31.011719 -12.855469 C 31.011719 -12.148438 30.988281 -11.644531 30.9375 -11.34375 L 30.675781 -9.769531 Z M 29.078125 -13.535156 L 29.078125 -11.652344 L 27.222656 -11.960938 C 27.238281 -12.058594 27.246094 -12.359375 27.246094 -12.855469 C 27.246094 -16.691406 26.167969 -19.605469 24.011719 -21.59375 C 21.808594 -23.621094 18.914062 -24.632812 15.316406 -24.632812 C 11.941406 -24.632812 9.042969 -23.46875 6.628906 -21.144531 C 4.234375 -18.835938 3.039062 -16.074219 3.039062 -12.855469 C 3.039062 -9.644531 4.234375 -6.890625 6.625 -4.597656 C 9.042969 -2.285156 11.9375 -1.128906 15.316406 -1.128906 C 18.132812 -1.128906 20.519531 -1.625 22.480469 -2.609375 C 24.382812 -3.570312 25.90625 -5.011719 27.058594 -6.941406 L 28.675781 -5.976562 L 27.835938 -4.292969 L 21.40625 -7.507812 L 22.25 -9.191406 L 23.621094 -7.898438 C 22.382812 -6.582031 21.230469 -5.683594 20.171875 -5.195312 C 19.085938 -4.695312 17.683594 -4.445312 15.972656 -4.445312 C 14.183594 -4.445312 12.535156 -5.003906 11.03125 -6.121094 C 9.351562 -7.367188 8.511719 -9.210938 8.511719 -11.652344 L 8.511719 -13.535156 Z M 10.648438 -18.457031 L 20.441406 -18.457031 L 20.441406 -16.574219 L 18.578125 -16.292969 C 18.449219 -17.164062 18.136719 -17.808594 17.644531 -18.222656 C 17.140625 -18.644531 16.449219 -18.859375 15.570312 -18.859375 C 14.570312 -18.859375 13.816406 -18.632812 13.300781 -18.175781 C 12.824219 -17.753906 12.566406 -17.1875 12.527344 -16.472656 L 10.648438 -16.574219 Z M 10.648438 -14.691406 L 8.660156 -14.691406 L 8.765625 -16.675781 C 8.863281 -18.4375 9.542969 -19.878906 10.804688 -20.996094 C 12.03125 -22.082031 13.621094 -22.625 15.570312 -22.625 C 17.367188 -22.625 18.867188 -22.117188 20.074219 -21.101562 C 21.289062 -20.078125 22.03125 -18.660156 22.304688 -16.851562 L 22.628906 -14.691406 Z M 10.648438 -14.691406 "/></g></g></g><g fill="#5d0000" fill-opacity="1"><g transform="translate(273.463981, 200.878979)"><g><path d="M 2.636719 -25.765625 L 2.636719 -37.238281 L 15.292969 -37.238281 L 15.292969 -25.765625 L 13.410156 -25.765625 L 13.410156 -27.648438 L 20.714844 -27.648438 L 20.714844 -17.101562 L 13.410156 -17.101562 L 13.410156 -18.984375 L 15.292969 -18.984375 L 15.292969 -10.796875 C 15.292969 -9.9375 15.378906 -9.355469 15.550781 -9.046875 C 15.5625 -9.03125 15.566406 -9.023438 15.566406 -9.023438 C 15.550781 -9.042969 15.527344 -9.058594 15.5 -9.074219 C 15.46875 -9.09375 15.4375 -9.105469 15.410156 -9.113281 L 15.417969 -9.117188 C 15.53125 -9.117188 15.667969 -9.144531 15.828125 -9.203125 C 16.054688 -9.285156 16.207031 -9.351562 16.28125 -9.402344 L 18.683594 -11.003906 L 22.085938 0.0429688 L 20.761719 0.789062 C 18.566406 2.019531 16.082031 2.636719 13.308594 2.636719 C 11.347656 2.636719 9.632812 2.28125 8.167969 1.566406 C 6.636719 0.824219 5.46875 -0.191406 4.65625 -1.484375 C 3.929688 -2.644531 3.410156 -3.867188 3.09375 -5.148438 C 2.789062 -6.386719 2.636719 -7.699219 2.636719 -9.089844 L 2.636719 -18.984375 L 4.519531 -18.984375 L 4.519531 -17.101562 L -1.078125 -17.101562 L -1.078125 -27.648438 L 4.519531 -27.648438 L 4.519531 -25.765625 Z M 6.402344 -23.878906 L 0.804688 -23.878906 L 0.804688 -25.765625 L 2.6875 -25.765625 L 2.6875 -18.984375 L 0.804688 -18.984375 L 0.804688 -20.867188 L 6.402344 -20.867188 L 6.402344 -9.089844 C 6.402344 -8.003906 6.519531 -6.992188 6.75 -6.050781 C 6.96875 -5.15625 7.335938 -4.304688 7.847656 -3.488281 C 8.277344 -2.804688 8.929688 -2.246094 9.8125 -1.820312 C 10.757812 -1.359375 11.925781 -1.128906 13.308594 -1.128906 C 15.425781 -1.128906 17.292969 -1.585938 18.914062 -2.496094 L 19.835938 -0.855469 L 18.039062 -0.300781 L 15.828125 -7.480469 L 17.628906 -8.035156 L 18.671875 -6.46875 L 18.371094 -6.269531 C 18.046875 -6.050781 17.625 -5.847656 17.117188 -5.664062 C 16.539062 -5.453125 15.972656 -5.347656 15.417969 -5.347656 C 14.738281 -5.347656 14.128906 -5.511719 13.582031 -5.835938 C 13.039062 -6.152344 12.601562 -6.609375 12.269531 -7.199219 C 11.773438 -8.082031 11.527344 -9.28125 11.527344 -10.796875 L 11.527344 -20.867188 L 18.832031 -20.867188 L 18.832031 -18.984375 L 16.949219 -18.984375 L 16.949219 -25.765625 L 18.832031 -25.765625 L 18.832031 -23.878906 L 11.527344 -23.878906 L 11.527344 -35.355469 L 13.410156 -35.355469 L 13.410156 -33.472656 L 4.519531 -33.472656 L 4.519531 -35.355469 L 6.402344 -35.355469 Z M 6.402344 -23.878906 "/></g></g></g><g fill="#ff5656" fill-opacity="1"><g transform="translate(75.196978, 61.476404)"><g><path d="M 25.0625 -8.53125 C 26.5 -8.53125 27.894531 -8.75 29.25 -9.1875 C 30.601562 -9.625 31.597656 -10.046875 32.234375 -10.453125 L 33.1875 -11.09375 L 37.21875 -3.0625 C 37.082031 -2.957031 36.894531 -2.820312 36.65625 -2.65625 C 36.425781 -2.488281 35.882812 -2.175781 35.03125 -1.71875 C 34.175781 -1.269531 33.257812 -0.878906 32.28125 -0.546875 C 31.3125 -0.210938 30.039062 0.0820312 28.46875 0.34375 C 26.894531 0.613281 25.273438 0.75 23.609375 0.75 C 19.753906 0.75 16.101562 -0.191406 12.65625 -2.078125 C 9.207031 -3.972656 6.425781 -6.578125 4.3125 -9.890625 C 2.207031 -13.203125 1.15625 -16.785156 1.15625 -20.640625 C 1.15625 -23.554688 1.773438 -26.351562 3.015625 -29.03125 C 4.253906 -31.707031 5.898438 -34 7.953125 -35.90625 C 10.015625 -37.8125 12.414062 -39.332031 15.15625 -40.46875 C 17.90625 -41.613281 20.722656 -42.1875 23.609375 -42.1875 C 26.285156 -42.1875 28.753906 -41.867188 31.015625 -41.234375 C 33.273438 -40.597656 34.875 -39.960938 35.8125 -39.328125 L 37.21875 -38.359375 L 33.1875 -30.328125 C 32.957031 -30.535156 32.609375 -30.78125 32.140625 -31.0625 C 31.671875 -31.34375 30.734375 -31.71875 29.328125 -32.1875 C 27.921875 -32.65625 26.5 -32.890625 25.0625 -32.890625 C 22.78125 -32.890625 20.734375 -32.519531 18.921875 -31.78125 C 17.117188 -31.050781 15.691406 -30.082031 14.640625 -28.875 C 13.585938 -27.664062 12.785156 -26.367188 12.234375 -24.984375 C 11.679688 -23.597656 11.40625 -22.179688 11.40625 -20.734375 C 11.40625 -17.585938 12.582031 -14.765625 14.9375 -12.265625 C 17.300781 -9.773438 20.675781 -8.53125 25.0625 -8.53125 Z M 25.0625 -8.53125 "/></g></g></g><g fill="#ff5656" fill-opacity="1"><g transform="translate(113.008749, 61.476404)"><g><path d="M 4.765625 -3.1875 C 2.359375 -5.8125 1.15625 -9.03125 1.15625 -12.84375 C 1.15625 -16.664062 2.359375 -19.898438 4.765625 -22.546875 C 7.179688 -25.191406 10.242188 -26.515625 13.953125 -26.515625 C 17.367188 -26.515625 20.179688 -25.441406 22.390625 -23.296875 L 22.390625 -25.765625 L 31.28125 -25.765625 L 31.28125 0 L 22.5 0 L 22.5 -2.90625 L 22.390625 -2.90625 C 20.179688 -0.46875 17.367188 0.75 13.953125 0.75 C 10.242188 0.75 7.179688 -0.5625 4.765625 -3.1875 Z M 12.328125 -17.21875 C 11.171875 -16.082031 10.59375 -14.625 10.59375 -12.84375 C 10.59375 -11.070312 11.144531 -9.625 12.25 -8.5 C 13.351562 -7.382812 14.8125 -6.828125 16.625 -6.828125 C 18.363281 -6.828125 19.789062 -7.394531 20.90625 -8.53125 C 22.03125 -9.675781 22.59375 -11.117188 22.59375 -12.859375 C 22.59375 -14.628906 22.015625 -16.082031 20.859375 -17.21875 C 19.710938 -18.363281 18.300781 -18.9375 16.625 -18.9375 C 14.914062 -18.9375 13.484375 -18.363281 12.328125 -17.21875 Z M 12.328125 -17.21875 "/></g></g></g><g fill="#ff5656" fill-opacity="1"><g transform="translate(147.305485, 61.476404)"><g><path d="M 3.015625 0 L 3.015625 -25.765625 L 11.90625 -25.765625 L 11.90625 -22.046875 L 12 -22.046875 C 12.070312 -22.179688 12.179688 -22.347656 12.328125 -22.546875 C 12.484375 -22.742188 12.8125 -23.09375 13.3125 -23.59375 C 13.8125 -24.101562 14.34375 -24.554688 14.90625 -24.953125 C 15.476562 -25.359375 16.21875 -25.71875 17.125 -26.03125 C 18.03125 -26.351562 18.953125 -26.515625 19.890625 -26.515625 C 20.859375 -26.515625 21.8125 -26.378906 22.75 -26.109375 C 23.6875 -25.847656 24.375 -25.582031 24.8125 -25.3125 L 25.515625 -24.90625 L 21.796875 -17.375 C 20.691406 -18.3125 19.148438 -18.78125 17.171875 -18.78125 C 16.097656 -18.78125 15.175781 -18.546875 14.40625 -18.078125 C 13.632812 -17.609375 13.085938 -17.035156 12.765625 -16.359375 C 12.453125 -15.691406 12.226562 -15.125 12.09375 -14.65625 C 11.96875 -14.1875 11.90625 -13.820312 11.90625 -13.5625 L 11.90625 0 Z M 3.015625 0 "/></g></g></g><g fill="#ff5656" fill-opacity="1"><g transform="translate(172.312472, 61.476404)"><g><path d="M 4.765625 -3.1875 C 2.359375 -5.8125 1.15625 -9.03125 1.15625 -12.84375 C 1.15625 -16.664062 2.359375 -19.898438 4.765625 -22.546875 C 7.179688 -25.191406 10.242188 -26.515625 13.953125 -26.515625 C 17.367188 -26.515625 20.179688 -25.441406 22.390625 -23.296875 L 22.390625 -43.1875 L 31.28125 -43.1875 L 31.28125 0 L 22.5 0 L 22.5 -2.90625 L 22.390625 -2.90625 C 20.179688 -0.46875 17.367188 0.75 13.953125 0.75 C 10.242188 0.75 7.179688 -0.5625 4.765625 -3.1875 Z M 12.328125 -17.21875 C 11.171875 -16.082031 10.59375 -14.625 10.59375 -12.84375 C 10.59375 -11.070312 11.144531 -9.625 12.25 -8.5 C 13.351562 -7.382812 14.8125 -6.828125 16.625 -6.828125 C 18.363281 -6.828125 19.789062 -7.394531 20.90625 -8.53125 C 22.03125 -9.675781 22.59375 -11.117188 22.59375 -12.859375 C 22.59375 -14.628906 22.015625 -16.082031 20.859375 -17.21875 C 19.710938 -18.363281 18.300781 -18.9375 16.625 -18.9375 C 14.914062 -18.9375 13.484375 -18.363281 12.328125 -17.21875 Z M 12.328125 -17.21875 "/></g></g></g><g fill="#ff5656" fill-opacity="1"><g transform="translate(206.609209, 61.476404)"><g><path d="M 3.859375 -40.125 C 4.898438 -41.164062 6.140625 -41.6875 7.578125 -41.6875 C 9.023438 -41.6875 10.265625 -41.164062 11.296875 -40.125 C 12.335938 -39.082031 12.859375 -37.84375 12.859375 -36.40625 C 12.859375 -34.96875 12.335938 -33.726562 11.296875 -32.6875 C 10.265625 -31.65625 9.023438 -31.140625 7.578125 -31.140625 C 6.140625 -31.140625 4.898438 -31.65625 3.859375 -32.6875 C 2.828125 -33.726562 2.3125 -34.96875 2.3125 -36.40625 C 2.3125 -37.84375 2.828125 -39.082031 3.859375 -40.125 Z M 3.015625 -25.765625 L 3.015625 0 L 11.90625 0 L 11.90625 -25.765625 Z M 3.015625 -25.765625 "/></g></g></g><g fill="#ff5656" fill-opacity="1"><g transform="translate(221.774094, 61.476404)"><g><path d="M 1.859375 6.328125 L 9.140625 2.765625 C 10.484375 4.972656 12.8125 6.078125 16.125 6.078125 C 17.664062 6.078125 19.09375 5.582031 20.40625 4.59375 C 21.726562 3.601562 22.390625 2.085938 22.390625 0.046875 L 22.390625 -1.859375 C 20.816406 -0.117188 18.003906 0.75 13.953125 0.75 C 10.242188 0.75 7.179688 -0.5625 4.765625 -3.1875 C 2.359375 -5.8125 1.15625 -9.03125 1.15625 -12.84375 C 1.15625 -16.664062 2.359375 -19.898438 4.765625 -22.546875 C 7.179688 -25.191406 10.242188 -26.515625 13.953125 -26.515625 C 17.273438 -26.515625 20.039062 -25.492188 22.25 -23.453125 L 22.390625 -23.453125 L 22.390625 -25.765625 L 31.28125 -25.765625 L 31.28125 0.703125 C 31.28125 4.890625 29.890625 8.117188 27.109375 10.390625 C 24.335938 12.671875 20.675781 13.8125 16.125 13.8125 C 8.757812 13.8125 4.003906 11.316406 1.859375 6.328125 Z M 12.328125 -17.21875 C 11.171875 -16.082031 10.59375 -14.625 10.59375 -12.84375 C 10.59375 -11.070312 11.144531 -9.625 12.25 -8.5 C 13.351562 -7.382812 14.8125 -6.828125 16.625 -6.828125 C 18.363281 -6.828125 19.789062 -7.394531 20.90625 -8.53125 C 22.03125 -9.675781 22.59375 -11.117188 22.59375 -12.859375 C 22.59375 -14.628906 22.015625 -16.082031 20.859375 -17.21875 C 19.710938 -18.363281 18.300781 -18.9375 16.625 -18.9375 C 14.914062 -18.9375 13.484375 -18.363281 12.328125 -17.21875 Z M 12.328125 -17.21875 "/></g></g></g><g fill="#ff5656" fill-opacity="1"><g transform="translate(256.070831, 61.476404)"><g><path d="M 4.765625 -3.1875 C 2.359375 -5.8125 1.15625 -9.03125 1.15625 -12.84375 C 1.15625 -16.664062 2.359375 -19.898438 4.765625 -22.546875 C 7.179688 -25.191406 10.242188 -26.515625 13.953125 -26.515625 C 17.367188 -26.515625 20.179688 -25.441406 22.390625 -23.296875 L 22.390625 -25.765625 L 31.28125 -25.765625 L 31.28125 0 L 22.5 0 L 22.5 -2.90625 L 22.390625 -2.90625 C 20.179688 -0.46875 17.367188 0.75 13.953125 0.75 C 10.242188 0.75 7.179688 -0.5625 4.765625 -3.1875 Z M 12.328125 -17.21875 C 11.171875 -16.082031 10.59375 -14.625 10.59375 -12.84375 C 10.59375 -11.070312 11.144531 -9.625 12.25 -8.5 C 13.351562 -7.382812 14.8125 -6.828125 16.625 -6.828125 C 18.363281 -6.828125 19.789062 -7.394531 20.90625 -8.53125 C 22.03125 -9.675781 22.59375 -11.117188 22.59375 -12.859375 C 22.59375 -14.628906 22.015625 -16.082031 20.859375 -17.21875 C 19.710938 -18.363281 18.300781 -18.9375 16.625 -18.9375 C 14.914062 -18.9375 13.484375 -18.363281 12.328125 -17.21875 Z M 12.328125 -17.21875 "/></g></g></g><g fill="#ff5656" fill-opacity="1"><g transform="translate(290.367555, 61.476404)"><g><path d="M 3.015625 0 L 3.015625 -25.765625 L 11.90625 -25.765625 L 11.90625 -23.046875 L 12 -23.046875 C 14.3125 -25.359375 16.773438 -26.515625 19.390625 -26.515625 C 20.660156 -26.515625 21.921875 -26.347656 23.171875 -26.015625 C 24.429688 -25.679688 25.640625 -25.160156 26.796875 -24.453125 C 27.953125 -23.753906 28.890625 -22.757812 29.609375 -21.46875 C 30.328125 -20.175781 30.6875 -18.675781 30.6875 -16.96875 L 30.6875 0 L 21.796875 0 L 21.796875 -14.5625 C 21.796875 -15.90625 21.367188 -17.078125 20.515625 -18.078125 C 19.660156 -19.078125 18.546875 -19.578125 17.171875 -19.578125 C 15.835938 -19.578125 14.625 -19.054688 13.53125 -18.015625 C 12.445312 -16.984375 11.90625 -15.832031 11.90625 -14.5625 L 11.90625 0 Z M 3.015625 0 "/></g></g></g><g fill="#ff5656" fill-opacity="1"><g transform="translate(81.23963, 131.177692)"><g><path d="M 40.46875 -23.203125 L 40.46875 -14.21875 C 39.40625 -9.289062 37.0625 -5.5625 33.4375 -3.03125 C 29.820312 -0.507812 25.789062 0.75 21.34375 0.75 C 15.75 0.75 10.984375 -1.335938 7.046875 -5.515625 C 3.117188 -9.703125 1.15625 -14.757812 1.15625 -20.6875 C 1.15625 -26.71875 3.078125 -31.804688 6.921875 -35.953125 C 10.773438 -40.109375 15.582031 -42.1875 21.34375 -42.1875 C 28.070312 -42.1875 33.394531 -39.828125 37.3125 -35.109375 L 31.140625 -28.328125 C 28.929688 -31.867188 25.847656 -33.640625 21.890625 -33.640625 C 18.984375 -33.640625 16.5 -32.375 14.4375 -29.84375 C 12.375 -27.320312 11.34375 -24.269531 11.34375 -20.6875 C 11.34375 -17.175781 12.375 -14.171875 14.4375 -11.671875 C 16.5 -9.179688 18.984375 -7.9375 21.890625 -7.9375 C 24.304688 -7.9375 26.410156 -8.660156 28.203125 -10.109375 C 29.992188 -11.566406 30.890625 -13.503906 30.890625 -15.921875 L 21.34375 -15.921875 L 21.34375 -23.203125 Z M 40.46875 -23.203125 "/></g></g></g><g fill="#ff5656" fill-opacity="1"><g transform="translate(122.86773, 131.177692)"><g><path d="M 11.40625 -25.765625 L 11.40625 -13.515625 C 11.40625 -10.960938 11.785156 -9.148438 12.546875 -8.078125 C 13.316406 -7.015625 14.625 -6.484375 16.46875 -6.484375 C 18.3125 -6.484375 19.617188 -7.015625 20.390625 -8.078125 C 21.160156 -9.148438 21.546875 -10.960938 21.546875 -13.515625 L 21.546875 -25.765625 L 30.4375 -25.765625 L 30.4375 -11.34375 C 30.4375 -7.0625 29.320312 -3.972656 27.09375 -2.078125 C 24.863281 -0.191406 21.320312 0.75 16.46875 0.75 C 11.613281 0.75 8.070312 -0.191406 5.84375 -2.078125 C 3.625 -3.972656 2.515625 -7.0625 2.515625 -11.34375 L 2.515625 -25.765625 Z M 11.40625 -25.765625 "/></g></g></g><g fill="#ff5656" fill-opacity="1"><g transform="translate(155.808671, 131.177692)"><g><path d="M 3.859375 -40.125 C 4.898438 -41.164062 6.140625 -41.6875 7.578125 -41.6875 C 9.023438 -41.6875 10.265625 -41.164062 11.296875 -40.125 C 12.335938 -39.082031 12.859375 -37.84375 12.859375 -36.40625 C 12.859375 -34.96875 12.335938 -33.726562 11.296875 -32.6875 C 10.265625 -31.65625 9.023438 -31.140625 7.578125 -31.140625 C 6.140625 -31.140625 4.898438 -31.65625 3.859375 -32.6875 C 2.828125 -33.726562 2.3125 -34.96875 2.3125 -36.40625 C 2.3125 -37.84375 2.828125 -39.082031 3.859375 -40.125 Z M 3.015625 -25.765625 L 3.015625 0 L 11.90625 0 L 11.90625 -25.765625 Z M 3.015625 -25.765625 "/></g></g></g><g fill="#ff5656" fill-opacity="1"><g transform="translate(170.973556, 131.177692)"><g><path d="M 3.015625 0 L 3.015625 -43.1875 L 11.90625 -43.1875 L 11.90625 0 Z M 3.015625 0 "/></g></g></g><g fill="#ff5656" fill-opacity="1"><g transform="translate(185.887362, 131.177692)"><g><path d="M 4.765625 -3.1875 C 2.359375 -5.8125 1.15625 -9.03125 1.15625 -12.84375 C 1.15625 -16.664062 2.359375 -19.898438 4.765625 -22.546875 C 7.179688 -25.191406 10.242188 -26.515625 13.953125 -26.515625 C 17.367188 -26.515625 20.179688 -25.441406 22.390625 -23.296875 L 22.390625 -43.1875 L 31.28125 -43.1875 L 31.28125 0 L 22.5 0 L 22.5 -2.90625 L 22.390625 -2.90625 C 20.179688 -0.46875 17.367188 0.75 13.953125 0.75 C 10.242188 0.75 7.179688 -0.5625 4.765625 -3.1875 Z M 12.328125 -17.21875 C 11.171875 -16.082031 10.59375 -14.625 10.59375 -12.84375 C 10.59375 -11.070312 11.144531 -9.625 12.25 -8.5 C 13.351562 -7.382812 14.8125 -6.828125 16.625 -6.828125 C 18.363281 -6.828125 19.789062 -7.394531 20.90625 -8.53125 C 22.03125 -9.675781 22.59375 -11.117188 22.59375 -12.859375 C 22.59375 -14.628906 22.015625 -16.082031 20.859375 -17.21875 C 19.710938 -18.363281 18.300781 -18.9375 16.625 -18.9375 C 14.914062 -18.9375 13.484375 -18.363281 12.328125 -17.21875 Z M 12.328125 -17.21875 "/></g></g></g><g fill="#ff5656" fill-opacity="1"><g transform="translate(220.184098, 131.177692)"><g><path d="M 3.015625 0 L 3.015625 -43.1875 L 11.90625 -43.1875 L 11.90625 -23.046875 L 12 -23.046875 C 14.3125 -25.359375 16.773438 -26.515625 19.390625 -26.515625 C 20.660156 -26.515625 21.921875 -26.347656 23.171875 -26.015625 C 24.429688 -25.679688 25.640625 -25.160156 26.796875 -24.453125 C 27.953125 -23.753906 28.890625 -22.757812 29.609375 -21.46875 C 30.328125 -20.175781 30.6875 -18.675781 30.6875 -16.96875 L 30.6875 0 L 21.796875 0 L 21.796875 -14.5625 C 21.796875 -15.90625 21.367188 -17.078125 20.515625 -18.078125 C 19.660156 -19.078125 18.546875 -19.578125 17.171875 -19.578125 C 15.835938 -19.578125 14.625 -19.054688 13.53125 -18.015625 C 12.445312 -16.984375 11.90625 -15.832031 11.90625 -14.5625 L 11.90625 0 Z M 3.015625 0 "/></g></g></g><g fill="#ff5656" fill-opacity="1"><g transform="translate(253.376108, 131.177692)"><g><path d="M 4.765625 -3.1875 C 2.359375 -5.8125 1.15625 -9.03125 1.15625 -12.84375 C 1.15625 -16.664062 2.359375 -19.898438 4.765625 -22.546875 C 7.179688 -25.191406 10.242188 -26.515625 13.953125 -26.515625 C 17.367188 -26.515625 20.179688 -25.441406 22.390625 -23.296875 L 22.390625 -25.765625 L 31.28125 -25.765625 L 31.28125 0 L 22.5 0 L 22.5 -2.90625 L 22.390625 -2.90625 C 20.179688 -0.46875 17.367188 0.75 13.953125 0.75 C 10.242188 0.75 7.179688 -0.5625 4.765625 -3.1875 Z M 12.328125 -17.21875 C 11.171875 -16.082031 10.59375 -14.625 10.59375 -12.84375 C 10.59375 -11.070312 11.144531 -9.625 12.25 -8.5 C 13.351562 -7.382812 14.8125 -6.828125 16.625 -6.828125 C 18.363281 -6.828125 19.789062 -7.394531 20.90625 -8.53125 C 22.03125 -9.675781 22.59375 -11.117188 22.59375 -12.859375 C 22.59375 -14.628906 22.015625 -16.082031 20.859375 -17.21875 C 19.710938 -18.363281 18.300781 -18.9375 16.625 -18.9375 C 14.914062 -18.9375 13.484375 -18.363281 12.328125 -17.21875 Z M 12.328125 -17.21875 "/></g></g></g><g fill="#ff5656" fill-opacity="1"><g transform="translate(287.672844, 131.177692)"><g><path d="M 3.015625 0 L 3.015625 -43.1875 L 11.90625 -43.1875 L 11.90625 0 Z M 3.015625 0 "/></g></g></g><g fill="#ff5656" fill-opacity="1"><g transform="translate(302.586661, 131.177692)"><g><path d="M 3.015625 0 L 3.015625 -43.1875 L 11.90625 -43.1875 L 11.90625 0 Z M 3.015625 0 "/></g></g></g><g fill="#ff5656" fill-opacity="1"><g transform="translate(105.44537, 200.878979)"><g><path d="M 37.265625 0 L 35.296875 -24.5625 L 35.046875 -24.5625 L 26.5625 -0.25 L 20.9375 -0.25 L 12.453125 -24.5625 L 12.203125 -24.5625 L 10.25 0 L 0.796875 0 L 4.515625 -41.4375 L 14.5625 -41.4375 L 23.75 -17.53125 L 32.9375 -41.4375 L 42.984375 -41.4375 L 46.703125 0 Z M 37.265625 0 "/></g></g></g><g fill="#ff5656" fill-opacity="1"><g transform="translate(152.948605, 200.878979)"><g><path d="M 4.765625 -3.1875 C 2.359375 -5.8125 1.15625 -9.03125 1.15625 -12.84375 C 1.15625 -16.664062 2.359375 -19.898438 4.765625 -22.546875 C 7.179688 -25.191406 10.242188 -26.515625 13.953125 -26.515625 C 17.367188 -26.515625 20.179688 -25.441406 22.390625 -23.296875 L 22.390625 -25.765625 L 31.28125 -25.765625 L 31.28125 0 L 22.5 0 L 22.5 -2.90625 L 22.390625 -2.90625 C 20.179688 -0.46875 17.367188 0.75 13.953125 0.75 C 10.242188 0.75 7.179688 -0.5625 4.765625 -3.1875 Z M 12.328125 -17.21875 C 11.171875 -16.082031 10.59375 -14.625 10.59375 -12.84375 C 10.59375 -11.070312 11.144531 -9.625 12.25 -8.5 C 13.351562 -7.382812 14.8125 -6.828125 16.625 -6.828125 C 18.363281 -6.828125 19.789062 -7.394531 20.90625 -8.53125 C 22.03125 -9.675781 22.59375 -11.117188 22.59375 -12.859375 C 22.59375 -14.628906 22.015625 -16.082031 20.859375 -17.21875 C 19.710938 -18.363281 18.300781 -18.9375 16.625 -18.9375 C 14.914062 -18.9375 13.484375 -18.363281 12.328125 -17.21875 Z M 12.328125 -17.21875 "/></g></g></g><g fill="#ff5656" fill-opacity="1"><g transform="translate(187.245341, 200.878979)"><g><path d="M 3.015625 0 L 3.015625 -25.765625 L 11.90625 -25.765625 L 11.90625 -22.046875 L 12 -22.046875 C 12.070312 -22.179688 12.179688 -22.347656 12.328125 -22.546875 C 12.484375 -22.742188 12.8125 -23.09375 13.3125 -23.59375 C 13.8125 -24.101562 14.34375 -24.554688 14.90625 -24.953125 C 15.476562 -25.359375 16.21875 -25.71875 17.125 -26.03125 C 18.03125 -26.351562 18.953125 -26.515625 19.890625 -26.515625 C 20.859375 -26.515625 21.8125 -26.378906 22.75 -26.109375 C 23.6875 -25.847656 24.375 -25.582031 24.8125 -25.3125 L 25.515625 -24.90625 L 21.796875 -17.375 C 20.691406 -18.3125 19.148438 -18.78125 17.171875 -18.78125 C 16.097656 -18.78125 15.175781 -18.546875 14.40625 -18.078125 C 13.632812 -17.609375 13.085938 -17.035156 12.765625 -16.359375 C 12.453125 -15.691406 12.226562 -15.125 12.09375 -14.65625 C 11.96875 -14.1875 11.90625 -13.820312 11.90625 -13.5625 L 11.90625 0 Z M 3.015625 0 "/></g></g></g><g fill="#ff5656" fill-opacity="1"><g transform="translate(212.252329, 200.878979)"><g><path d="M 32.4375 -25.765625 L 20.1875 -13.453125 L 33.640625 0 L 22.203125 0 L 11.90625 -10.296875 L 11.90625 0 L 3.015625 0 L 3.015625 -43.1875 L 11.90625 -43.1875 L 11.90625 -16.765625 L 20.890625 -25.765625 Z M 32.4375 -25.765625 "/></g></g></g><g fill="#ff5656" fill-opacity="1"><g transform="translate(243.435552, 200.878979)"><g><path d="M 29.078125 -11.65625 L 10.390625 -11.65625 C 10.390625 -9.84375 10.972656 -8.5 12.140625 -7.625 C 13.316406 -6.757812 14.59375 -6.328125 15.96875 -6.328125 C 17.40625 -6.328125 18.539062 -6.519531 19.375 -6.90625 C 20.21875 -7.289062 21.175781 -8.050781 22.25 -9.1875 L 28.671875 -5.96875 C 25.992188 -1.488281 21.539062 0.75 15.3125 0.75 C 11.425781 0.75 8.09375 -0.578125 5.3125 -3.234375 C 2.539062 -5.898438 1.15625 -9.109375 1.15625 -12.859375 C 1.15625 -16.609375 2.539062 -19.820312 5.3125 -22.5 C 8.09375 -25.175781 11.425781 -26.515625 15.3125 -26.515625 C 19.394531 -26.515625 22.71875 -25.332031 25.28125 -22.96875 C 27.84375 -20.613281 29.125 -17.242188 29.125 -12.859375 C 29.125 -12.253906 29.109375 -11.851562 29.078125 -11.65625 Z M 10.640625 -16.578125 L 20.4375 -16.578125 C 20.238281 -17.910156 19.710938 -18.9375 18.859375 -19.65625 C 18.003906 -20.375 16.90625 -20.734375 15.5625 -20.734375 C 14.09375 -20.734375 12.921875 -20.347656 12.046875 -19.578125 C 11.179688 -18.816406 10.710938 -17.816406 10.640625 -16.578125 Z M 10.640625 -16.578125 "/></g></g></g><g fill="#ff5656" fill-opacity="1"><g transform="translate(273.463981, 200.878979)"><g><path d="M 4.515625 -25.765625 L 4.515625 -35.359375 L 13.40625 -35.359375 L 13.40625 -25.765625 L 18.828125 -25.765625 L 18.828125 -18.984375 L 13.40625 -18.984375 L 13.40625 -10.796875 C 13.40625 -8.421875 14.078125 -7.234375 15.421875 -7.234375 C 15.753906 -7.234375 16.101562 -7.300781 16.46875 -7.4375 C 16.84375 -7.570312 17.128906 -7.703125 17.328125 -7.828125 L 17.625 -8.03125 L 19.84375 -0.859375 C 17.925781 0.210938 15.75 0.75 13.3125 0.75 C 11.632812 0.75 10.191406 0.457031 8.984375 -0.125 C 7.785156 -0.707031 6.875 -1.492188 6.25 -2.484375 C 5.632812 -3.472656 5.191406 -4.507812 4.921875 -5.59375 C 4.648438 -6.6875 4.515625 -7.851562 4.515625 -9.09375 L 4.515625 -18.984375 L 0.796875 -18.984375 L 0.796875 -25.765625 Z M 4.515625 -25.765625 "/></g></g></g><g clip-path="url(#3639901c35)"><g transform="matrix(1, 0, 0, 1, 37, 310)"><g clip-path="url(#99d17be479)"><g clip-path="url(#a1e5c9b705)"><path fill="#444f50" d="M 0.0546875 0.546875 L 37.609375 0.546875 L 37.609375 37.101562 L 0.0546875 37.101562 Z M 0.0546875 0.546875 " fill-opacity="1" fill-rule="nonzero"/></g></g></g></g><g clip-path="url(#502233c29e)"><g transform="matrix(1, 0, 0, 1, 37, 263)"><g clip-path="url(#11bfe366c2)"><g clip-path="url(#f2f93d5d23)"><path fill="#444f50" d="M 0.0546875 0.734375 L 37.609375 0.734375 L 37.609375 37.292969 L 0.0546875 37.292969 Z M 0.0546875 0.734375 " fill-opacity="1" fill-rule="nonzero"/></g></g></g></g><g clip-path="url(#8acf15d58a)"><g transform="matrix(1, 0, 0, 1, 37, 216)"><g clip-path="url(#ee1d21a6f7)"><g clip-path="url(#21bf09e678)"><path fill="#444f50" d="M 0.0546875 0.6875 L 37.609375 0.6875 L 37.609375 37.242188 L 0.0546875 37.242188 Z M 0.0546875 0.6875 " fill-opacity="1" fill-rule="nonzero"/></g></g></g></g><g clip-path="url(#b9c0c44c56)"><g transform="matrix(1, 0, 0, 1, 37, 169)"><g clip-path="url(#9b153447de)"><g clip-path="url(#df06fd74d8)"><path fill="#444f50" d="M 0.0546875 0.636719 L 37.609375 0.636719 L 37.609375 37.195312 L 0.0546875 37.195312 Z M 0.0546875 0.636719 " fill-opacity="1" fill-rule="nonzero"/></g></g></g></g><g clip-path="url(#75fa5d1ce1)"><g transform="matrix(1, 0, 0, 1, 37, 122)"><g clip-path="url(#1cecde219f)"><g clip-path="url(#d22437df5f)"><path fill="#444f50" d="M 0.0546875 0.828125 L 37.609375 0.828125 L 37.609375 37.382812 L 0.0546875 37.382812 Z M 0.0546875 0.828125 " fill-opacity="1" fill-rule="nonzero"/></g></g></g></g><g clip-path="url(#275ab39fc6)"><g transform="matrix(1, 0, 0, 1, 37, 75)"><g clip-path="url(#f590ad4109)"><g clip-path="url(#00b57776b2)"><path fill="#444f50" d="M 0.0546875 0.777344 L 37.609375 0.777344 L 37.609375 37.335938 L 0.0546875 37.335938 Z M 0.0546875 0.777344 " fill-opacity="1" fill-rule="nonzero"/></g></g></g></g><g clip-path="url(#9b8d70fcdc)"><g transform="matrix(1, 0, 0, 1, 324, 310)"><g clip-path="url(#201d72a254)"><g clip-path="url(#e4600e5eaa)"><path fill="#444f50" d="M 0.152344 0.546875 L 37.707031 0.546875 L 37.707031 37.101562 L 0.152344 37.101562 Z M 0.152344 0.546875 " fill-opacity="1" fill-rule="nonzero"/></g></g></g></g><g clip-path="url(#24eb261e74)"><g transform="matrix(1, 0, 0, 1, 324, 263)"><g clip-path="url(#9a8bef1caa)"><g clip-path="url(#88d7050f8c)"><path fill="#444f50" d="M 0.152344 0.734375 L 37.707031 0.734375 L 37.707031 37.292969 L 0.152344 37.292969 Z M 0.152344 0.734375 " fill-opacity="1" fill-rule="nonzero"/></g></g></g></g><g clip-path="url(#d70a3d601c)"><g transform="matrix(1, 0, 0, 1, 324, 216)"><g clip-path="url(#8bd825fd52)"><g clip-path="url(#17625a17d0)"><path fill="#444f50" d="M 0.152344 0.6875 L 37.707031 0.6875 L 37.707031 37.242188 L 0.152344 37.242188 Z M 0.152344 0.6875 " fill-opacity="1" fill-rule="nonzero"/></g></g></g></g><g clip-path="url(#71075b7491)"><g transform="matrix(1, 0, 0, 1, 324, 169)"><g clip-path="url(#4f68284b99)"><g clip-path="url(#856ebb1f7f)"><path fill="#444f50" d="M 0.152344 0.636719 L 37.707031 0.636719 L 37.707031 37.195312 L 0.152344 37.195312 Z M 0.152344 0.636719 " fill-opacity="1" fill-rule="nonzero"/></g></g></g></g><g clip-path="url(#4b8943638b)"><g transform="matrix(1, 0, 0, 1, 324, 122)"><g clip-path="url(#2d110f0b63)"><g clip-path="url(#a1ed1d4141)"><path fill="#444f50" d="M 0.152344 0.828125 L 37.707031 0.828125 L 37.707031 37.382812 L 0.152344 37.382812 Z M 0.152344 0.828125 " fill-opacity="1" fill-rule="nonzero"/></g></g></g></g><g clip-path="url(#281f4446a6)"><g transform="matrix(1, 0, 0, 1, 324, 75)"><g clip-path="url(#6da2e0a750)"><g clip-path="url(#0b586e9351)"><path fill="#444f50" d="M 0.152344 0.777344 L 37.707031 0.777344 L 37.707031 37.335938 L 0.152344 37.335938 Z M 0.152344 0.777344 " fill-opacity="1" fill-rule="nonzero"/></g></g></g></g><g clip-path="url(#7aa767f9ac)"><g transform="matrix(1, 0, 0, 1, 158, 328)"><g clip-path="url(#a6ecdbebe0)"><g clip-path="url(#2b5e949705)"><path fill="#000000" d="M 0.164062 0.824219 L 82.59375 0.824219 L 82.59375 17.730469 L 0.164062 17.730469 Z M 0.164062 0.824219 " fill-opacity="1" fill-rule="nonzero"/></g></g></g></g><g clip-path="url(#f3690f662c)"><g transform="matrix(1, 0, 0, 1, 165, 300)"><g clip-path="url(#29c66a9b51)"><g clip-path="url(#44816b729e)"><path fill="#000000" d="M 0.945312 0.292969 L 9.101562 0.292969 L 9.101562 28.835938 L 0.945312 28.835938 Z M 0.945312 0.292969 " fill-opacity="1" fill-rule="nonzero"/></g></g></g></g><g clip-path="url(#c29836bdcd)"><g transform="matrix(1, 0, 0, 1, 223, 300)"><g clip-path="url(#64ae29cc02)"><g clip-path="url(#5c27d9c119)"><path fill="#000000" d="M 0.207031 0.292969 L 8.363281 0.292969 L 8.363281 28.835938 L 0.207031 28.835938 Z M 0.207031 0.292969 " fill-opacity="1" fill-rule="nonzero"/></g></g></g></g><g clip-path="url(#394ae4abba)"><g clip-path="url(#5fc51659c8)"><g transform="matrix(1, 0, 0, 1, 153, 282)"><g clip-path="url(#dc6d890f10)"><g clip-path="url(#7d94833051)"><g clip-path="url(#0fadf0ca77)"><path fill="#000000" d="M 0.71875 0.457031 L 21.132812 0.457031 L 21.132812 18.292969 L 0.71875 18.292969 Z M 0.71875 0.457031 " fill-opacity="1" fill-rule="nonzero"/></g></g></g></g></g></g><g clip-path="url(#302a979b2c)"><g transform="matrix(1, 0, 0, 1, 163, 282)"><g clip-path="url(#57da938f41)"><g clip-path="url(#8e0517c32c)"><path fill="#000000" d="M 0.910156 0.457031 L 68.351562 0.457031 L 68.351562 18.292969 L 0.910156 18.292969 Z M 0.910156 0.457031 " fill-opacity="1" fill-rule="nonzero"/></g></g></g></g></svg>